%FSLAX25Y25*%
%MOIN*%
G70*
G01*
G75*
G04 Layer_Physical_Order=2*
G04 Layer_Color=16711680*
%ADD10R,0.04331X0.05512*%
%ADD11R,0.04331X0.06693*%
%ADD12O,0.05000X0.30000*%
%ADD13C,0.02000*%
%ADD14C,0.00800*%
%ADD15C,0.00900*%
%ADD16C,0.04921*%
%ADD17R,0.04921X0.04921*%
%ADD18R,0.05906X0.05906*%
%ADD19C,0.05906*%
%ADD20C,0.05906*%
%ADD21C,0.05512*%
%ADD22R,0.05906X0.05906*%
%ADD23R,0.05906X0.05906*%
%ADD24C,0.05000*%
%ADD25O,0.03937X0.07874*%
%ADD26C,0.03000*%
%ADD27R,0.05512X0.04331*%
%ADD28C,0.01000*%
D10*
X196047Y198700D02*
D03*
X201953D02*
D03*
D12*
X132100Y14300D02*
D03*
X142100D02*
D03*
X152100D02*
D03*
X162100D02*
D03*
X172100D02*
D03*
X182100D02*
D03*
X192100D02*
D03*
X202100D02*
D03*
X212100D02*
D03*
X222100D02*
D03*
X232100D02*
D03*
X242100D02*
D03*
X252100D02*
D03*
X262100D02*
D03*
X272100D02*
D03*
X282100D02*
D03*
X292100D02*
D03*
X302100D02*
D03*
X312100D02*
D03*
X322100D02*
D03*
X332100D02*
D03*
X342100D02*
D03*
X352100D02*
D03*
X362100D02*
D03*
X372100D02*
D03*
D13*
X370800Y55300D02*
X372100Y54000D01*
X372400Y53700D01*
X372100Y54000D02*
Y54200D01*
Y14300D02*
Y54000D01*
X362553Y55300D02*
X370800D01*
X123400Y269700D02*
X163800D01*
X139147Y269347D02*
X139400Y269600D01*
X139147Y262600D02*
Y269347D01*
X158900Y260600D02*
X331500D01*
X154700Y260500D02*
X158900D01*
X149000Y254800D02*
X154700Y260500D01*
X131900Y254800D02*
X149000D01*
X126400Y260300D02*
X131900Y254800D01*
X126400Y260300D02*
Y262400D01*
X222400Y76500D02*
Y110600D01*
X222500Y110700D01*
X272100Y74800D02*
Y77000D01*
X272400Y72700D02*
Y76500D01*
Y72700D02*
X282700Y62400D01*
X329400D01*
X320700Y215500D02*
X330200D01*
X322000Y276100D02*
X322600Y275500D01*
X187400Y187400D02*
X187700D01*
X268800Y225500D02*
X284100D01*
X289053Y220547D01*
X372100Y54200D02*
X380700Y62800D01*
X289053Y220547D02*
X331947D01*
X147547Y275653D02*
X153500D01*
X145000Y278200D02*
X147547Y275653D01*
X121400Y267700D02*
X123400Y269700D01*
X163800D02*
X168000Y273900D01*
X121400Y262400D02*
Y267700D01*
X182700Y182800D02*
X213100D01*
X217700Y187400D01*
X167600Y197900D02*
X182700Y182800D01*
X157300Y197900D02*
X167600D01*
X217700Y197300D02*
X217800Y197200D01*
X217700Y187400D02*
Y187800D01*
Y197300D01*
X320400Y274800D02*
X328300D01*
X331947Y220547D02*
X342300Y230900D01*
Y260800D01*
X328300Y274800D02*
X342300Y260800D01*
X298800Y225500D02*
X306000D01*
X311000Y230500D01*
X331500D01*
X335700Y234700D01*
Y256400D01*
X331500Y260600D02*
X335700Y256400D01*
X205000Y210000D02*
Y225400D01*
X56600Y225500D02*
Y235500D01*
Y235600D01*
X167700Y227800D02*
X185100Y210400D01*
X201953Y198700D02*
X216300D01*
X217100D01*
X185700Y231600D02*
X211200D01*
X217700Y197300D02*
Y197800D01*
X217450Y197550D02*
X217700Y197300D01*
X205000Y210000D02*
X216300Y198700D01*
X217800Y198000D02*
X218000Y197800D01*
X217100Y198700D02*
X217800Y198000D01*
X205000Y225400D02*
X211200Y231600D01*
X217300Y237700D01*
X185100Y189700D02*
Y199200D01*
Y210400D01*
X196200Y199200D02*
X196300Y199100D01*
X185100Y189700D02*
X187400Y187400D01*
X185100Y199200D02*
X196200D01*
D14*
X142100Y14300D02*
Y28500D01*
Y14300D02*
Y29700D01*
X152100Y14300D02*
Y29700D01*
X142000Y29800D02*
X142100Y29700D01*
X152000Y29800D02*
X152100Y29700D01*
X142000Y29800D02*
Y90200D01*
Y91900D01*
Y90200D02*
Y110100D01*
X152000Y29800D02*
Y91000D01*
Y91900D01*
Y91000D02*
Y110500D01*
X162100Y14300D02*
Y91800D01*
Y110700D01*
X172100Y14300D02*
Y91800D01*
Y110600D01*
X182100Y14300D02*
Y91800D01*
Y111100D01*
X192100Y14300D02*
Y91800D01*
Y111000D01*
X202100Y14300D02*
Y91800D01*
Y111600D01*
X178000Y187600D02*
X178200D01*
X157700Y197800D02*
X167700D01*
X168000D01*
X167700Y177800D02*
Y178100D01*
X192000Y140900D02*
Y143600D01*
X172000Y140900D02*
Y143900D01*
X177700Y187800D02*
X182700Y182800D01*
X212700D01*
X168000Y197800D02*
X178200Y187600D01*
X212700Y182800D02*
X217700Y187800D01*
X217800Y187900D01*
X380700Y195500D02*
X385900Y190300D01*
X179100Y166400D02*
X250600D01*
X264800Y180600D01*
X375400D02*
X380100Y175900D01*
X264800Y180600D02*
X375400D01*
X162100Y140700D02*
Y149400D01*
X179100Y166400D01*
X380100Y175700D02*
X381200D01*
X190500Y162400D02*
X254300D01*
X262800Y170900D01*
X362000D01*
X366700Y166200D01*
X380100D01*
X172000Y143900D02*
X190500Y162400D01*
X380100Y166000D02*
X381200D01*
X201053Y159953D02*
X376247D01*
X182000Y140900D02*
X201053Y159953D01*
X376247D02*
X380600Y155600D01*
X381700D01*
X192000Y143600D02*
X206100Y157700D01*
X255700D01*
X262800Y150600D01*
X375900D01*
X380600Y145900D01*
X381400D01*
X202000Y144300D02*
X211000Y153300D01*
X252600D01*
X265200Y140700D01*
X375600D01*
X380600Y135700D01*
X202000Y140900D02*
Y144300D01*
X380600Y135500D02*
X380700D01*
X308500Y128300D02*
X311000Y130800D01*
X375600D01*
X211600Y140800D02*
Y140900D01*
X212000D02*
X220300Y149200D01*
X375600Y130800D02*
X381000Y125400D01*
X375500Y121000D02*
X380600Y115900D01*
Y115500D02*
X380700D01*
X222000Y140900D02*
X229800D01*
X249700Y121000D01*
X375500D01*
X270200Y124800D02*
X321400D01*
X321700Y125100D01*
X380300Y245300D02*
X380900D01*
X217700Y197800D02*
X217800Y197900D01*
X222100Y14300D02*
Y29900D01*
X163000Y203100D02*
X167700Y207800D01*
X233100Y129500D02*
X244800Y117800D01*
X312100D01*
X312200D01*
X217700Y217800D02*
X218900D01*
X223500Y222400D01*
X230400D01*
X236600Y216200D01*
X275500Y210600D02*
X285500Y200600D01*
X356300D01*
X298800Y205500D02*
X320700D01*
X298800Y195500D02*
X320700D01*
X298800Y185500D02*
X320700D01*
X298800Y175500D02*
X320700D01*
X298800Y165500D02*
X320700D01*
X298800Y155500D02*
X320700D01*
X298800Y145500D02*
X320700D01*
X298800Y135500D02*
X320700D01*
X236600Y216200D02*
X236800D01*
X242400Y210600D01*
X275500D01*
X336500Y185500D02*
X380700D01*
X331300Y190700D02*
X336500Y185500D01*
X168200Y174100D02*
X170900Y171400D01*
X168200Y174100D02*
Y178700D01*
X380600Y185900D02*
X380700D01*
X220300Y149200D02*
X228600D01*
X249500Y128300D01*
X308500D01*
X228300Y217800D02*
X244100Y202000D01*
X227800Y217800D02*
X228300D01*
X385900Y92400D02*
Y190300D01*
X384000Y90500D02*
X385900Y92400D01*
X386000Y92500D01*
X227700Y227800D02*
X231100D01*
X238947Y219953D01*
X274647D01*
X322100Y14300D02*
Y29700D01*
X339300Y46900D01*
X217700Y238000D02*
X217850Y238150D01*
X217700Y237800D02*
X217950Y238050D01*
X218000Y238100D01*
X217600Y237900D02*
X217700Y237800D01*
X272600Y36800D02*
X307500D01*
X262600Y46800D02*
X272600Y36800D01*
X281500Y195100D02*
X287000D01*
X276400Y200200D02*
X281500Y195100D01*
X256700Y200200D02*
X276400D01*
X268300Y194400D02*
X269500Y195600D01*
X234500Y202800D02*
X240500Y196800D01*
X253300D01*
X256700Y200200D01*
X170900Y171400D02*
X241500D01*
X260800Y190700D01*
X331300D01*
X227700Y187800D02*
X250600D01*
X257200Y194400D01*
X268300D01*
X197700Y237800D02*
X199200D01*
X203900Y242500D01*
X315200D01*
X317400Y240300D01*
X317300Y115900D02*
X320300D01*
X314200Y112800D02*
X317300Y115900D01*
X242400Y76500D02*
Y78500D01*
X276700Y112800D01*
X314200D01*
X282400Y76500D02*
X290100Y68800D01*
X281900Y76700D02*
X282250Y76350D01*
X252400Y76500D02*
Y80800D01*
X277300Y105700D01*
X321600D01*
X257700Y81900D02*
X276600Y100800D01*
X262400Y76500D02*
Y81100D01*
X276800Y95500D01*
X281800D01*
X281300Y95400D02*
X321100D01*
X317400Y240300D02*
X328400D01*
X364300Y105500D02*
X380700D01*
X358000Y111800D02*
X364300Y105500D01*
X329200Y111800D02*
X358000D01*
X229700Y126900D02*
X237300Y119300D01*
Y72400D02*
Y119300D01*
Y72400D02*
X250300Y59400D01*
X262100Y14300D02*
Y37300D01*
X257400Y42000D02*
X262100Y37300D01*
X257400Y42000D02*
Y49700D01*
X236100Y71000D02*
X257400Y49700D01*
X229800Y71000D02*
X236100D01*
X227700Y73100D02*
X229800Y71000D01*
X227700Y73100D02*
Y119900D01*
X222700Y124900D02*
X227700Y119900D01*
X177600Y237900D02*
X177700Y237800D01*
X172800Y242700D02*
X177600Y237900D01*
X178200Y238500D01*
X87100Y223500D02*
Y270400D01*
Y223500D02*
X94900Y215700D01*
X100000D01*
X357500Y248700D02*
X380700Y225500D01*
X98900Y250700D02*
Y278000D01*
X75700Y200900D02*
X104500D01*
X70200Y195400D02*
X75700Y200900D01*
X70200Y225500D02*
X78300D01*
X98500Y205300D01*
X100900D01*
X65500Y220200D02*
X70200Y215500D01*
X36600Y220200D02*
X65500D01*
X31800Y225000D02*
X36600Y220200D01*
X26500Y225000D02*
X31800D01*
X370700Y225500D02*
X380700Y215500D01*
X370700Y225500D02*
Y230900D01*
X353800Y247800D02*
X370700Y230900D01*
X353800Y247800D02*
Y255100D01*
X98900Y278000D02*
X105800Y284900D01*
X87100Y270400D02*
X103300Y286600D01*
X329600D01*
X155100Y281500D02*
X327400D01*
X153300Y283300D02*
X155100Y281500D01*
X113000Y283300D02*
X153300D01*
X106100Y276400D02*
X113000Y283300D01*
X106100Y270400D02*
Y276400D01*
X24600Y185500D02*
X26600D01*
X19300Y190800D02*
X24600Y185500D01*
X19300Y190800D02*
Y246000D01*
X26500Y253200D01*
X148200Y230000D02*
X156000Y237800D01*
X157700D01*
X217500Y237500D02*
X217600Y237600D01*
X217800Y238200D02*
X217850Y238150D01*
X217950Y238050D02*
X218100Y237900D01*
X217850Y238150D02*
X217950Y238050D01*
X217800Y187900D02*
Y197200D01*
X357500Y248700D02*
Y255400D01*
X105800Y284900D02*
X328000D01*
X329600Y286600D02*
X380700Y235500D01*
X328000Y284900D02*
X357500Y255400D01*
X327400Y281500D02*
X353800Y255100D01*
X104500Y200900D02*
X112500Y208900D01*
Y237100D01*
X98900Y250700D02*
X112500Y237100D01*
X137100Y221700D02*
Y228500D01*
X156700Y248100D01*
X156900Y133100D02*
Y177400D01*
X167800Y188300D01*
X146953Y138696D02*
Y144047D01*
X151400Y129500D02*
X233100D01*
X146953Y144047D02*
X147000Y144095D01*
Y133900D02*
X151400Y129500D01*
X147000Y133900D02*
Y138648D01*
X146953Y138696D02*
X147000Y138648D01*
Y144095D02*
Y194300D01*
X155800Y203100D01*
X163000D01*
X148200Y201900D02*
Y230000D01*
X211300Y15100D02*
X212100Y14300D01*
X211300Y15100D02*
Y110200D01*
X212200Y111100D01*
X232100Y14300D02*
Y33100D01*
X227300Y37900D02*
X232100Y33100D01*
X227300Y37900D02*
Y59300D01*
X146200Y126900D02*
X229700D01*
X146200D02*
X146400Y126700D01*
X136900Y136200D02*
X146200Y126900D01*
X211200Y119700D02*
X215953Y114947D01*
X137200Y220000D02*
X144300Y212900D01*
Y207900D02*
Y212900D01*
X124800Y188400D02*
X144300Y207900D01*
X124800Y138900D02*
Y188400D01*
X138800Y124900D02*
X222700D01*
X124800Y138900D02*
X138800Y124900D01*
X156700Y248100D02*
X167700D01*
X121300Y195900D02*
X136800Y211400D01*
X118100Y216100D02*
X154200Y252200D01*
X154400Y252300D02*
X170400D01*
X172800Y249900D01*
Y242700D02*
Y249900D01*
X217700Y68900D02*
X227300Y59300D01*
X215200Y36800D02*
X222100Y29900D01*
X215200Y36800D02*
Y106400D01*
X215953Y107153D01*
Y114947D01*
X212600Y122400D02*
X217700Y117300D01*
Y68900D02*
Y117300D01*
X274647Y219953D02*
X284600Y210000D01*
X257700Y63700D02*
Y81900D01*
X276600Y100800D02*
X349900D01*
X284600Y210000D02*
X357800D01*
X361400Y206400D01*
Y205700D02*
Y206400D01*
X290100Y68800D02*
X320900D01*
X342600Y90500D01*
X384000D01*
X339300Y46900D02*
Y68600D01*
X334700Y59700D02*
Y74900D01*
X344000Y84200D01*
X277900Y40800D02*
X297300D01*
X272300Y46400D02*
X277900Y40800D01*
X250300Y59400D02*
X259800D01*
X272700Y46500D01*
X217800Y197900D02*
Y198000D01*
Y198300D01*
Y197200D02*
Y197900D01*
X121300Y137700D02*
Y195900D01*
Y137700D02*
X136600Y122400D01*
X212600D01*
X118100Y136200D02*
Y216100D01*
Y136200D02*
X134600Y119700D01*
X211200D01*
X136900Y136200D02*
Y190600D01*
X148200Y201900D01*
X273400Y56200D02*
X331300D01*
X334700Y59600D01*
X334650Y59650D02*
X334700Y59700D01*
D15*
X442528Y433157D02*
X442100Y432728D01*
X442528Y432300D01*
X442957Y432728D01*
X442528Y433157D01*
X451355Y439156D02*
X450927Y440013D01*
X450070Y440870D01*
X449213Y441298D01*
X447499D01*
X446642Y440870D01*
X445785Y440013D01*
X445357Y439156D01*
X444928Y437870D01*
Y435728D01*
X445357Y434442D01*
X445785Y433585D01*
X446642Y432728D01*
X447499Y432300D01*
X449213D01*
X450070Y432728D01*
X450927Y433585D01*
X451355Y434442D01*
Y435728D01*
X449213D02*
X451355D01*
X453412Y441298D02*
Y432300D01*
Y441298D02*
X457268D01*
X458554Y440870D01*
X458982Y440441D01*
X459411Y439584D01*
Y438727D01*
X458982Y437870D01*
X458554Y437442D01*
X457268Y437013D01*
X453412D02*
X457268D01*
X458554Y436585D01*
X458982Y436156D01*
X459411Y435299D01*
Y434014D01*
X458982Y433157D01*
X458554Y432728D01*
X457268Y432300D01*
X453412D01*
X461424Y441298D02*
Y432300D01*
X466566D01*
D16*
X362553Y55300D02*
D03*
X145253Y262200D02*
D03*
D17*
X356647Y55300D02*
D03*
X139347Y262200D02*
D03*
D18*
X312400Y76500D02*
D03*
X132000Y110900D02*
D03*
D19*
X302400Y76500D02*
D03*
X292400D02*
D03*
X282400D02*
D03*
X272400D02*
D03*
X262400D02*
D03*
X252400D02*
D03*
X242400D02*
D03*
X232400D02*
D03*
X222400D02*
D03*
X312400Y46500D02*
D03*
X292400D02*
D03*
X282400D02*
D03*
X272400D02*
D03*
X262400D02*
D03*
X252400D02*
D03*
X242400D02*
D03*
X232400D02*
D03*
X222400D02*
D03*
X56600Y175500D02*
D03*
Y185500D02*
D03*
Y195500D02*
D03*
Y205500D02*
D03*
Y215500D02*
D03*
Y225500D02*
D03*
Y235500D02*
D03*
X26600Y175500D02*
D03*
Y185500D02*
D03*
Y195500D02*
D03*
Y205500D02*
D03*
Y215500D02*
D03*
Y225500D02*
D03*
X320700Y265500D02*
D03*
Y255500D02*
D03*
Y245500D02*
D03*
Y235500D02*
D03*
Y225500D02*
D03*
Y215500D02*
D03*
Y205500D02*
D03*
Y195500D02*
D03*
Y185500D02*
D03*
Y175500D02*
D03*
Y165500D02*
D03*
Y155500D02*
D03*
Y145500D02*
D03*
Y135500D02*
D03*
Y125500D02*
D03*
Y115500D02*
D03*
Y105500D02*
D03*
Y95500D02*
D03*
Y85500D02*
D03*
X380700Y275500D02*
D03*
Y265500D02*
D03*
Y255500D02*
D03*
Y245500D02*
D03*
Y235500D02*
D03*
Y225500D02*
D03*
Y215500D02*
D03*
Y205500D02*
D03*
Y195500D02*
D03*
Y185500D02*
D03*
Y175500D02*
D03*
Y165500D02*
D03*
Y155500D02*
D03*
Y145500D02*
D03*
Y135500D02*
D03*
Y125500D02*
D03*
Y115500D02*
D03*
Y105500D02*
D03*
Y95500D02*
D03*
Y85500D02*
D03*
X142000Y110900D02*
D03*
X152000D02*
D03*
X162000D02*
D03*
X172000D02*
D03*
X182000D02*
D03*
X192000D02*
D03*
X202000D02*
D03*
X212000D02*
D03*
X222000D02*
D03*
X132000Y140900D02*
D03*
X152000D02*
D03*
X162000D02*
D03*
X172000D02*
D03*
X182000D02*
D03*
X192000D02*
D03*
X202000D02*
D03*
X212000D02*
D03*
X222000D02*
D03*
X268800Y215500D02*
D03*
Y205500D02*
D03*
Y195500D02*
D03*
Y185500D02*
D03*
Y175500D02*
D03*
Y165500D02*
D03*
Y155500D02*
D03*
Y145500D02*
D03*
Y135500D02*
D03*
X298800Y225500D02*
D03*
Y205500D02*
D03*
Y195500D02*
D03*
Y185500D02*
D03*
Y175500D02*
D03*
Y165500D02*
D03*
Y155500D02*
D03*
Y145500D02*
D03*
Y135500D02*
D03*
D20*
X302400Y46500D02*
D03*
X70200Y225500D02*
D03*
Y215500D02*
D03*
Y205500D02*
D03*
Y195500D02*
D03*
Y185500D02*
D03*
Y175500D02*
D03*
X100200Y235500D02*
D03*
Y225500D02*
D03*
Y215500D02*
D03*
Y205500D02*
D03*
Y195500D02*
D03*
Y185500D02*
D03*
Y175500D02*
D03*
X178100Y274200D02*
D03*
X188100D02*
D03*
X142000Y140900D02*
D03*
X298800Y215500D02*
D03*
X59500Y130900D02*
D03*
Y120900D02*
D03*
Y110900D02*
D03*
Y100900D02*
D03*
Y90900D02*
D03*
Y80900D02*
D03*
Y70900D02*
D03*
Y60900D02*
D03*
X89500Y140900D02*
D03*
Y130900D02*
D03*
Y120900D02*
D03*
Y110900D02*
D03*
Y100900D02*
D03*
Y90900D02*
D03*
Y80900D02*
D03*
Y70900D02*
D03*
Y60900D02*
D03*
X12800Y130900D02*
D03*
Y120900D02*
D03*
Y110900D02*
D03*
Y100900D02*
D03*
Y90900D02*
D03*
Y80900D02*
D03*
Y70900D02*
D03*
Y60900D02*
D03*
X42800Y140900D02*
D03*
Y130900D02*
D03*
Y120900D02*
D03*
Y110900D02*
D03*
Y100900D02*
D03*
Y90900D02*
D03*
Y80900D02*
D03*
Y70900D02*
D03*
Y60900D02*
D03*
D21*
X107200Y211200D02*
D03*
X137200D02*
D03*
X107200Y220000D02*
D03*
X137200D02*
D03*
X56400Y252700D02*
D03*
X26400D02*
D03*
X145800Y278300D02*
D03*
X115800D02*
D03*
X105700Y262400D02*
D03*
X75700D02*
D03*
D22*
X70200Y235500D02*
D03*
X168100Y274200D02*
D03*
X59500Y140900D02*
D03*
X12800D02*
D03*
D23*
X26600Y235500D02*
D03*
X320700Y275500D02*
D03*
X268800Y225500D02*
D03*
D24*
X157700Y237800D02*
D03*
Y227800D02*
D03*
Y217800D02*
D03*
Y207800D02*
D03*
Y197800D02*
D03*
Y187800D02*
D03*
X167700Y247800D02*
D03*
Y237800D02*
D03*
Y227800D02*
D03*
Y217800D02*
D03*
Y207800D02*
D03*
Y197800D02*
D03*
Y187800D02*
D03*
Y177800D02*
D03*
X177700Y247800D02*
D03*
Y237800D02*
D03*
Y187800D02*
D03*
Y177800D02*
D03*
X187700Y247800D02*
D03*
Y237800D02*
D03*
Y187800D02*
D03*
X197700Y247800D02*
D03*
Y237800D02*
D03*
Y187800D02*
D03*
Y177800D02*
D03*
X207700Y247800D02*
D03*
Y187800D02*
D03*
Y177800D02*
D03*
X217700Y247800D02*
D03*
Y237800D02*
D03*
Y227800D02*
D03*
Y217800D02*
D03*
Y207800D02*
D03*
Y197800D02*
D03*
Y187800D02*
D03*
Y177800D02*
D03*
X227700Y237800D02*
D03*
Y227800D02*
D03*
Y217800D02*
D03*
Y207800D02*
D03*
Y197800D02*
D03*
Y187800D02*
D03*
X187700Y177800D02*
D03*
X207700Y237800D02*
D03*
X329400Y62400D02*
D03*
X356300Y200600D02*
D03*
X349900Y100800D02*
D03*
X257600Y63700D02*
D03*
X361400Y205700D02*
D03*
X244100Y202000D02*
D03*
X380700Y62800D02*
D03*
X307500Y36600D02*
D03*
X287000Y195100D02*
D03*
X234500Y202800D02*
D03*
X273400Y56200D02*
D03*
X328400Y240300D02*
D03*
X329200Y111800D02*
D03*
X106500Y270500D02*
D03*
X185700Y231600D02*
D03*
X156900Y133100D02*
D03*
X339500Y68500D02*
D03*
X344700Y84100D02*
D03*
X272300Y46400D02*
D03*
X297300Y40800D02*
D03*
D25*
X116400Y262400D02*
D03*
X121400D02*
D03*
X126400D02*
D03*
D26*
X270200Y124800D02*
D03*
X312100Y117800D02*
D03*
D27*
X153500Y269747D02*
D03*
Y275653D02*
D03*
X332600Y215647D02*
D03*
Y221553D02*
D03*
D28*
X56600Y206200D02*
Y215500D01*
Y186900D02*
Y195500D01*
M02*
