%FSLAX25Y25*%
%MOIN*%
G70*
G01*
G75*
G04 Layer_Color=16711935*
%ADD10R,0.04331X0.05512*%
%ADD11R,0.04331X0.06693*%
%ADD12O,0.05000X0.30000*%
%ADD13C,0.02000*%
%ADD14C,0.00800*%
%ADD15C,0.00900*%
%ADD16C,0.04921*%
%ADD17R,0.04921X0.04921*%
%ADD18R,0.05906X0.05906*%
%ADD19C,0.05906*%
%ADD20C,0.05906*%
%ADD21C,0.05512*%
%ADD22R,0.05906X0.05906*%
%ADD23R,0.05906X0.05906*%
%ADD24C,0.05000*%
%ADD25O,0.03937X0.07874*%
%ADD26C,0.03000*%
%ADD27R,0.05512X0.04331*%
%ADD28C,0.01000*%
%ADD29C,0.00787*%
%ADD30C,0.00984*%
%ADD31C,0.02362*%
%ADD32C,0.00591*%
%ADD33R,0.31000X0.13000*%
%ADD34R,2.55000X0.29000*%
%ADD35R,2.59000X0.02000*%
%ADD36R,0.05131X0.06312*%
%ADD37R,0.05131X0.07493*%
%ADD38O,0.05800X0.30800*%
%ADD39C,0.05721*%
%ADD40R,0.05721X0.05721*%
%ADD41R,0.06706X0.06706*%
%ADD42C,0.06706*%
%ADD43C,0.06706*%
%ADD44C,0.06312*%
%ADD45R,0.06706X0.06706*%
%ADD46R,0.06706X0.06706*%
%ADD47C,0.05800*%
%ADD48O,0.04737X0.08674*%
%ADD49C,0.03800*%
%ADD50R,2.49000X0.27000*%
%ADD51R,0.06312X0.05131*%
D15*
X442528Y433157D02*
X442100Y432728D01*
X442528Y432300D01*
X442957Y432728D01*
X442528Y433157D01*
X451355Y439156D02*
X450927Y440013D01*
X450070Y440870D01*
X449213Y441298D01*
X447499D01*
X446642Y440870D01*
X445785Y440013D01*
X445357Y439156D01*
X444928Y437870D01*
Y435728D01*
X445357Y434442D01*
X445785Y433585D01*
X446642Y432728D01*
X447499Y432300D01*
X449213D01*
X450070Y432728D01*
X450927Y433585D01*
X451355Y434442D01*
Y435728D01*
X449213D02*
X451355D01*
X453412Y441298D02*
Y432300D01*
Y441298D02*
X457268D01*
X458554Y440870D01*
X458982Y440441D01*
X459411Y439584D01*
Y438727D01*
X458982Y437870D01*
X458554Y437442D01*
X457268Y437013D01*
X453412D02*
X457268D01*
X458554Y436585D01*
X458982Y436156D01*
X459411Y435299D01*
Y434014D01*
X458982Y433157D01*
X458554Y432728D01*
X457268Y432300D01*
X453412D01*
X467423Y440013D02*
X466566Y440870D01*
X465281Y441298D01*
X463567D01*
X462281Y440870D01*
X461424Y440013D01*
Y439156D01*
X461853Y438299D01*
X462281Y437870D01*
X463138Y437442D01*
X465709Y436585D01*
X466566Y436156D01*
X466995Y435728D01*
X467423Y434871D01*
Y433585D01*
X466566Y432728D01*
X465281Y432300D01*
X463567D01*
X462281Y432728D01*
X461424Y433585D01*
D36*
X196047Y198700D02*
D03*
X201953D02*
D03*
D38*
X132100Y14300D02*
D03*
X142100D02*
D03*
X152100D02*
D03*
X162100D02*
D03*
X172100D02*
D03*
X182100D02*
D03*
X192100D02*
D03*
X202100D02*
D03*
X212100D02*
D03*
X222100D02*
D03*
X232100D02*
D03*
X242100D02*
D03*
X252100D02*
D03*
X262100D02*
D03*
X272100D02*
D03*
X282100D02*
D03*
X292100D02*
D03*
X302100D02*
D03*
X312100D02*
D03*
X322100D02*
D03*
X332100D02*
D03*
X342100D02*
D03*
X352100D02*
D03*
X362100D02*
D03*
X372100D02*
D03*
D39*
X362553Y55300D02*
D03*
X145253Y262200D02*
D03*
D40*
X356647Y55300D02*
D03*
X139347Y262200D02*
D03*
D41*
X312400Y76500D02*
D03*
X132000Y110900D02*
D03*
D42*
X302400Y76500D02*
D03*
X292400D02*
D03*
X282400D02*
D03*
X272400D02*
D03*
X262400D02*
D03*
X252400D02*
D03*
X242400D02*
D03*
X232400D02*
D03*
X222400D02*
D03*
X312400Y46500D02*
D03*
X292400D02*
D03*
X282400D02*
D03*
X272400D02*
D03*
X262400D02*
D03*
X252400D02*
D03*
X242400D02*
D03*
X232400D02*
D03*
X222400D02*
D03*
X56600Y175500D02*
D03*
Y185500D02*
D03*
Y195500D02*
D03*
Y205500D02*
D03*
Y215500D02*
D03*
Y225500D02*
D03*
Y235500D02*
D03*
X26600Y175500D02*
D03*
Y185500D02*
D03*
Y195500D02*
D03*
Y205500D02*
D03*
Y215500D02*
D03*
Y225500D02*
D03*
X320700Y265500D02*
D03*
Y255500D02*
D03*
Y245500D02*
D03*
Y235500D02*
D03*
Y225500D02*
D03*
Y215500D02*
D03*
Y205500D02*
D03*
Y195500D02*
D03*
Y185500D02*
D03*
Y175500D02*
D03*
Y165500D02*
D03*
Y155500D02*
D03*
Y145500D02*
D03*
Y135500D02*
D03*
Y125500D02*
D03*
Y115500D02*
D03*
Y105500D02*
D03*
Y95500D02*
D03*
Y85500D02*
D03*
X380700Y275500D02*
D03*
Y265500D02*
D03*
Y255500D02*
D03*
Y245500D02*
D03*
Y235500D02*
D03*
Y225500D02*
D03*
Y215500D02*
D03*
Y205500D02*
D03*
Y195500D02*
D03*
Y185500D02*
D03*
Y175500D02*
D03*
Y165500D02*
D03*
Y155500D02*
D03*
Y145500D02*
D03*
Y135500D02*
D03*
Y125500D02*
D03*
Y115500D02*
D03*
Y105500D02*
D03*
Y95500D02*
D03*
Y85500D02*
D03*
X142000Y110900D02*
D03*
X152000D02*
D03*
X162000D02*
D03*
X172000D02*
D03*
X182000D02*
D03*
X192000D02*
D03*
X202000D02*
D03*
X212000D02*
D03*
X222000D02*
D03*
X132000Y140900D02*
D03*
X152000D02*
D03*
X162000D02*
D03*
X172000D02*
D03*
X182000D02*
D03*
X192000D02*
D03*
X202000D02*
D03*
X212000D02*
D03*
X222000D02*
D03*
X268800Y215500D02*
D03*
Y205500D02*
D03*
Y195500D02*
D03*
Y185500D02*
D03*
Y175500D02*
D03*
Y165500D02*
D03*
Y155500D02*
D03*
Y145500D02*
D03*
Y135500D02*
D03*
X298800Y225500D02*
D03*
Y205500D02*
D03*
Y195500D02*
D03*
Y185500D02*
D03*
Y175500D02*
D03*
Y165500D02*
D03*
Y155500D02*
D03*
Y145500D02*
D03*
Y135500D02*
D03*
D43*
X302400Y46500D02*
D03*
X70200Y225500D02*
D03*
Y215500D02*
D03*
Y205500D02*
D03*
Y195500D02*
D03*
Y185500D02*
D03*
Y175500D02*
D03*
X100200Y235500D02*
D03*
Y225500D02*
D03*
Y215500D02*
D03*
Y205500D02*
D03*
Y195500D02*
D03*
Y185500D02*
D03*
Y175500D02*
D03*
X178100Y274200D02*
D03*
X188100D02*
D03*
X142000Y140900D02*
D03*
X298800Y215500D02*
D03*
X59500Y130900D02*
D03*
Y120900D02*
D03*
Y110900D02*
D03*
Y100900D02*
D03*
Y90900D02*
D03*
Y80900D02*
D03*
Y70900D02*
D03*
Y60900D02*
D03*
X89500Y140900D02*
D03*
Y130900D02*
D03*
Y120900D02*
D03*
Y110900D02*
D03*
Y100900D02*
D03*
Y90900D02*
D03*
Y80900D02*
D03*
Y70900D02*
D03*
Y60900D02*
D03*
X12800Y130900D02*
D03*
Y120900D02*
D03*
Y110900D02*
D03*
Y100900D02*
D03*
Y90900D02*
D03*
Y80900D02*
D03*
Y70900D02*
D03*
Y60900D02*
D03*
X42800Y140900D02*
D03*
Y130900D02*
D03*
Y120900D02*
D03*
Y110900D02*
D03*
Y100900D02*
D03*
Y90900D02*
D03*
Y80900D02*
D03*
Y70900D02*
D03*
Y60900D02*
D03*
D44*
X107200Y211200D02*
D03*
X137200D02*
D03*
X107200Y220000D02*
D03*
X137200D02*
D03*
X56400Y252700D02*
D03*
X26400D02*
D03*
X145800Y278300D02*
D03*
X115800D02*
D03*
X105700Y262400D02*
D03*
X75700D02*
D03*
D45*
X70200Y235500D02*
D03*
X168100Y274200D02*
D03*
X59500Y140900D02*
D03*
X12800D02*
D03*
D46*
X26600Y235500D02*
D03*
X320700Y275500D02*
D03*
X268800Y225500D02*
D03*
D47*
X157700Y237800D02*
D03*
Y227800D02*
D03*
Y217800D02*
D03*
Y207800D02*
D03*
Y197800D02*
D03*
Y187800D02*
D03*
X167700Y247800D02*
D03*
Y237800D02*
D03*
Y227800D02*
D03*
Y217800D02*
D03*
Y207800D02*
D03*
Y197800D02*
D03*
Y187800D02*
D03*
Y177800D02*
D03*
X177700Y247800D02*
D03*
Y237800D02*
D03*
Y187800D02*
D03*
Y177800D02*
D03*
X187700Y247800D02*
D03*
Y237800D02*
D03*
Y187800D02*
D03*
X197700Y247800D02*
D03*
Y237800D02*
D03*
Y187800D02*
D03*
Y177800D02*
D03*
X207700Y247800D02*
D03*
Y187800D02*
D03*
Y177800D02*
D03*
X217700Y247800D02*
D03*
Y237800D02*
D03*
Y227800D02*
D03*
Y217800D02*
D03*
Y207800D02*
D03*
Y197800D02*
D03*
Y187800D02*
D03*
Y177800D02*
D03*
X227700Y237800D02*
D03*
Y227800D02*
D03*
Y217800D02*
D03*
Y207800D02*
D03*
Y197800D02*
D03*
Y187800D02*
D03*
X187700Y177800D02*
D03*
X207700Y237800D02*
D03*
X329400Y62400D02*
D03*
X356300Y200600D02*
D03*
X349900Y100800D02*
D03*
X257600Y63700D02*
D03*
X361400Y205700D02*
D03*
X244100Y202000D02*
D03*
X380700Y62800D02*
D03*
X307500Y36600D02*
D03*
X287000Y195100D02*
D03*
X234500Y202800D02*
D03*
X273400Y56200D02*
D03*
X328400Y240300D02*
D03*
X329200Y111800D02*
D03*
X106500Y270500D02*
D03*
X185700Y231600D02*
D03*
X156900Y133100D02*
D03*
X339500Y68500D02*
D03*
X344700Y84100D02*
D03*
X272300Y46400D02*
D03*
X297300Y40800D02*
D03*
D48*
X116400Y262400D02*
D03*
X121400D02*
D03*
X126400D02*
D03*
D49*
X270200Y124800D02*
D03*
X312100Y117800D02*
D03*
D50*
X251600Y15800D02*
D03*
D51*
X153500Y269747D02*
D03*
Y275653D02*
D03*
X332600Y215647D02*
D03*
Y221553D02*
D03*
M02*
