M48
;Layer_Color=9474304
;FILE_FORMAT=2:5
INCH,LZ
;TYPE=PLATED
T1F00S00C0.01500
T2F00S00C0.02500
T3F00S00C0.02800
T4F00S00C0.02953
T5F00S00C0.03346
T6F00S00C0.03543
%
T01
X02702Y01248
X03121Y01178
T02
X01577Y01878
Y01978
Y02078
X01677
Y01978
Y01878
Y01778
X01777
Y01878
X01877
X01977
Y01778
X02077
Y01878
X02177
Y01978
Y02078
X02277
Y01978
Y01878
X02177Y01778
X01877
Y02378
X01777
Y02478
X01877
X01977
Y02378
X02077
Y02478
X02177
Y02378
Y02278
Y02178
X02277
Y02278
Y02378
X01677
X01577
Y02278
Y02178
X01677
Y02278
Y02478
T03
X02723Y00464
X02973Y00408
X03075Y00366
X01569Y01331
X02345Y02028
X02441Y0202
X0287Y01951
X03292Y01118
X03294Y00624
X02734Y00562
X02576Y00637
X03395Y00685
X03447Y00841
X03499Y01008
X03807Y00628
X03563Y02006
X03614Y02057
X03284Y02403
X01857Y02316
X01065Y02705
T04
X0356647Y00553
X0362553
X0145253Y02622
X0139347
T05
X01072Y02112
X01372
Y022
X01072
X01057Y02624
X01158Y02783
X01458
X00757Y02624
X00564Y02527
X00264
T06
X02224Y00465
X02324
X02424
X02524
X02624
X02724
X02824
X02924
X03024
X03124
X00128Y00609
Y00709
Y00809
Y00909
Y01009
Y01109
Y01209
Y01309
Y01409
X00428
Y01309
Y01209
Y01109
Y01009
Y00909
Y00809
Y00709
Y00609
X00595
Y00709
Y00809
Y00909
Y01009
Y01109
Y01209
Y01309
Y01409
X00895
Y01309
Y01209
Y01109
Y01009
Y00909
Y00809
Y00709
Y00609
X0132Y01109
X0142
X0152
X0162
X0172
Y01409
X0162
X0152
X0142
X0132
X01002Y01755
Y01855
Y01955
Y02055
X00702
Y01955
Y01855
Y01755
X00566
Y01855
Y01955
Y02055
X00266
Y01955
Y01855
Y01755
X0182Y01409
X0192
X0202
X0212
X0222
Y01109
X0212
X0202
X0192
X0182
X02224Y00765
X02324
X02424
X02524
X02624
X02724
X02824
X02924
X03024
X03124
X03207Y00855
Y00955
Y01055
Y01155
Y01255
Y01355
Y01455
Y01555
Y01655
Y01755
Y01855
Y01955
Y02055
X02988
Y01955
Y01855
Y01755
Y01655
Y01555
Y01455
Y01355
X02688
Y01455
Y01555
Y01655
Y01755
Y01855
Y01955
Y02055
X03807
Y01955
Y01855
Y01755
Y01655
Y01555
Y01455
Y01355
Y01255
Y01155
Y01055
Y00955
Y00855
Y02155
Y02255
Y02355
Y02455
Y02555
Y02655
Y02755
X03207
Y02655
Y02555
Y02455
Y02355
Y02255
Y02155
X02988
Y02255
X02688
Y02155
X01881Y02742
X01781
X01681
X01264Y02624
X01214
X01164
X01002Y02355
Y02255
Y02155
X00702
Y02255
Y02355
X00566
Y02255
Y02155
X00266
Y02255
Y02355
M30
