%FSLAX25Y25*%
%MOIN*%
G70*
G01*
G75*
G04 Layer_Color=2752767*
%ADD10R,0.04331X0.05512*%
%ADD11R,0.04331X0.06693*%
%ADD12O,0.05000X0.30000*%
%ADD13C,0.02000*%
%ADD14C,0.00800*%
%ADD15C,0.00900*%
%ADD16C,0.04921*%
%ADD17R,0.04921X0.04921*%
%ADD18R,0.05906X0.05906*%
%ADD19C,0.05906*%
%ADD20C,0.05906*%
%ADD21C,0.05512*%
%ADD22R,0.05906X0.05906*%
%ADD23R,0.05906X0.05906*%
%ADD24C,0.05000*%
%ADD25O,0.03937X0.07874*%
%ADD26C,0.03000*%
%ADD27R,0.05512X0.04331*%
%ADD28C,0.01000*%
%ADD29C,0.00787*%
%ADD30C,0.00984*%
%ADD31C,0.02362*%
%ADD32C,0.00591*%
%ADD33R,0.31000X0.13000*%
%ADD34R,2.55000X0.29000*%
%ADD35R,2.59000X0.02000*%
%ADD36R,0.05131X0.06312*%
%ADD37R,0.05131X0.07493*%
%ADD38O,0.05800X0.30800*%
%ADD39C,0.05721*%
%ADD40R,0.05721X0.05721*%
%ADD41R,0.06706X0.06706*%
%ADD42C,0.06706*%
%ADD43C,0.06706*%
%ADD44C,0.06312*%
%ADD45R,0.06706X0.06706*%
%ADD46R,0.06706X0.06706*%
%ADD47C,0.05800*%
%ADD48O,0.04737X0.08674*%
%ADD49C,0.03800*%
%ADD50R,2.49000X0.27000*%
%ADD51R,0.06312X0.05131*%
%ADD52C,0.00667*%
%ADD53C,0.01440*%
%ADD54C,0.01200*%
D15*
X535100Y289298D02*
Y280300D01*
Y289298D02*
X538099D01*
X539385Y288870D01*
X540242Y288013D01*
X540670Y287156D01*
X541099Y285870D01*
Y283728D01*
X540670Y282442D01*
X540242Y281585D01*
X539385Y280729D01*
X538099Y280300D01*
X535100D01*
X543113Y286299D02*
Y280300D01*
Y283728D02*
X543541Y285013D01*
X544398Y285870D01*
X545255Y286299D01*
X546540D01*
X548211Y289298D02*
X548640Y288870D01*
X549068Y289298D01*
X548640Y289726D01*
X548211Y289298D01*
X548640Y286299D02*
Y280300D01*
X550654Y289298D02*
Y280300D01*
X552539Y289298D02*
Y280300D01*
X555281Y289298D02*
X555710Y288870D01*
X556138Y289298D01*
X555710Y289726D01*
X555281Y289298D01*
X555710Y286299D02*
Y280300D01*
X557724Y286299D02*
Y280300D01*
Y284585D02*
X559009Y285870D01*
X559866Y286299D01*
X561152D01*
X562008Y285870D01*
X562437Y284585D01*
Y280300D01*
X569935Y286299D02*
Y279443D01*
X569507Y278158D01*
X569078Y277729D01*
X568222Y277301D01*
X566936D01*
X566079Y277729D01*
X569935Y285013D02*
X569078Y285870D01*
X568222Y286299D01*
X566936D01*
X566079Y285870D01*
X565222Y285013D01*
X564794Y283728D01*
Y282871D01*
X565222Y281585D01*
X566079Y280729D01*
X566936Y280300D01*
X568222D01*
X569078Y280729D01*
X569935Y281585D01*
X579405Y289298D02*
Y280300D01*
Y289298D02*
X582404D01*
X583690Y288870D01*
X584547Y288013D01*
X584975Y287156D01*
X585403Y285870D01*
Y283728D01*
X584975Y282442D01*
X584547Y281585D01*
X583690Y280729D01*
X582404Y280300D01*
X579405D01*
X587417Y283728D02*
X592559D01*
Y284585D01*
X592131Y285442D01*
X591702Y285870D01*
X590845Y286299D01*
X589560D01*
X588703Y285870D01*
X587846Y285013D01*
X587417Y283728D01*
Y282871D01*
X587846Y281585D01*
X588703Y280729D01*
X589560Y280300D01*
X590845D01*
X591702Y280729D01*
X592559Y281585D01*
X595773Y289298D02*
Y282014D01*
X596201Y280729D01*
X597058Y280300D01*
X597915D01*
X594487Y286299D02*
X597487D01*
X604342D02*
Y280300D01*
Y285013D02*
X603485Y285870D01*
X602628Y286299D01*
X601343D01*
X600486Y285870D01*
X599629Y285013D01*
X599200Y283728D01*
Y282871D01*
X599629Y281585D01*
X600486Y280729D01*
X601343Y280300D01*
X602628D01*
X603485Y280729D01*
X604342Y281585D01*
X607599Y289298D02*
X608027Y288870D01*
X608456Y289298D01*
X608027Y289726D01*
X607599Y289298D01*
X608027Y286299D02*
Y280300D01*
X610041Y289298D02*
Y280300D01*
X616640Y285013D02*
X616211Y285870D01*
X614926Y286299D01*
X613640D01*
X612355Y285870D01*
X611926Y285013D01*
X612355Y284156D01*
X613212Y283728D01*
X615354Y283299D01*
X616211Y282871D01*
X616640Y282014D01*
Y281585D01*
X616211Y280729D01*
X614926Y280300D01*
X613640D01*
X612355Y280729D01*
X611926Y281585D01*
X618953Y281157D02*
X618525Y280729D01*
X618953Y280300D01*
X619382Y280729D01*
X618953Y281157D01*
X600986Y410156D02*
Y410584D01*
X601415Y411441D01*
X601843Y411870D01*
X602700Y412298D01*
X604414D01*
X605271Y411870D01*
X605699Y411441D01*
X606128Y410584D01*
Y409727D01*
X605699Y408870D01*
X604843Y407585D01*
X600558Y403300D01*
X606557D01*
X684834Y410584D02*
X685691Y411013D01*
X686977Y412298D01*
Y403300D01*
X696575Y412298D02*
X692290D01*
X691861Y408442D01*
X692290Y408870D01*
X693575Y409299D01*
X694861D01*
X696146Y408870D01*
X697003Y408013D01*
X697432Y406728D01*
Y405871D01*
X697003Y404585D01*
X696146Y403728D01*
X694861Y403300D01*
X693575D01*
X692290Y403728D01*
X691861Y404157D01*
X691433Y405014D01*
X699446Y409299D02*
Y403300D01*
Y407585D02*
X700731Y408870D01*
X701588Y409299D01*
X702873D01*
X703730Y408870D01*
X704159Y407585D01*
Y403300D01*
Y407585D02*
X705444Y408870D01*
X706301Y409299D01*
X707587D01*
X708444Y408870D01*
X708872Y407585D01*
Y403300D01*
X712557Y412298D02*
X712986Y411870D01*
X713414Y412298D01*
X712986Y412727D01*
X712557Y412298D01*
X712986Y409299D02*
Y403300D01*
X714999Y412298D02*
Y403300D01*
X726954Y414012D02*
X726097Y413155D01*
X725240Y411870D01*
X724383Y410156D01*
X723955Y408013D01*
Y406299D01*
X724383Y404157D01*
X725240Y402443D01*
X726097Y401158D01*
X726954Y400301D01*
X726097Y413155D02*
X725240Y411441D01*
X724812Y410156D01*
X724383Y408013D01*
Y406299D01*
X724812Y404157D01*
X725240Y402872D01*
X726097Y401158D01*
X731239Y412298D02*
X729953Y411870D01*
X729096Y410584D01*
X728668Y408442D01*
Y407156D01*
X729096Y405014D01*
X729953Y403728D01*
X731239Y403300D01*
X732096D01*
X733381Y403728D01*
X734238Y405014D01*
X734667Y407156D01*
Y408442D01*
X734238Y410584D01*
X733381Y411870D01*
X732096Y412298D01*
X731239D01*
X737109Y404157D02*
X736681Y403728D01*
X737109Y403300D01*
X737537Y403728D01*
X737109Y404157D01*
X740365Y412298D02*
X745079D01*
X742508Y408870D01*
X743793D01*
X744650Y408442D01*
X745079Y408013D01*
X745507Y406728D01*
Y405871D01*
X745079Y404585D01*
X744222Y403728D01*
X742936Y403300D01*
X741651D01*
X740365Y403728D01*
X739937Y404157D01*
X739508Y405014D01*
X749663Y412298D02*
X748378Y411870D01*
X747950Y411013D01*
Y410156D01*
X748378Y409299D01*
X749235Y408870D01*
X750949Y408442D01*
X752234Y408013D01*
X753091Y407156D01*
X753520Y406299D01*
Y405014D01*
X753091Y404157D01*
X752663Y403728D01*
X751377Y403300D01*
X749663D01*
X748378Y403728D01*
X747950Y404157D01*
X747521Y405014D01*
Y406299D01*
X747950Y407156D01*
X748806Y408013D01*
X750092Y408442D01*
X751806Y408870D01*
X752663Y409299D01*
X753091Y410156D01*
Y411013D01*
X752663Y411870D01*
X751377Y412298D01*
X749663D01*
X755534Y410584D02*
X756390Y411013D01*
X757676Y412298D01*
Y403300D01*
X762132Y409299D02*
Y403300D01*
Y407585D02*
X763418Y408870D01*
X764275Y409299D01*
X765560D01*
X766417Y408870D01*
X766845Y407585D01*
Y403300D01*
Y407585D02*
X768131Y408870D01*
X768988Y409299D01*
X770273D01*
X771130Y408870D01*
X771559Y407585D01*
Y403300D01*
X774387Y409299D02*
Y403300D01*
Y407585D02*
X775672Y408870D01*
X776529Y409299D01*
X777814D01*
X778672Y408870D01*
X779100Y407585D01*
Y403300D01*
Y407585D02*
X780385Y408870D01*
X781242Y409299D01*
X782528D01*
X783385Y408870D01*
X783813Y407585D01*
Y403300D01*
X786641Y414012D02*
X787498Y413155D01*
X788355Y411870D01*
X789212Y410156D01*
X789641Y408013D01*
Y406299D01*
X789212Y404157D01*
X788355Y402443D01*
X787498Y401158D01*
X786641Y400301D01*
X787498Y413155D02*
X788355Y411441D01*
X788784Y410156D01*
X789212Y408013D01*
Y406299D01*
X788784Y404157D01*
X788355Y402872D01*
X787498Y401158D01*
X825362Y407585D02*
X829218D01*
X830503Y408013D01*
X830932Y408442D01*
X831360Y409299D01*
Y410584D01*
X830932Y411441D01*
X830503Y411870D01*
X829218Y412298D01*
X825362D01*
Y403300D01*
X836374Y412298D02*
Y403300D01*
X833374Y412298D02*
X839373D01*
X840444D02*
Y403300D01*
X846443Y412298D02*
Y403300D01*
X840444Y408013D02*
X846443D01*
X881719Y412298D02*
Y403300D01*
Y412298D02*
X885575D01*
X886860Y411870D01*
X887289Y411441D01*
X887717Y410584D01*
Y409727D01*
X887289Y408870D01*
X886860Y408442D01*
X885575Y408013D01*
X881719D01*
X884718D02*
X887717Y403300D01*
X891873Y409299D02*
X891016Y408870D01*
X890160Y408013D01*
X889731Y406728D01*
Y405871D01*
X890160Y404585D01*
X891016Y403728D01*
X891873Y403300D01*
X893159D01*
X894016Y403728D01*
X894873Y404585D01*
X895301Y405871D01*
Y406728D01*
X894873Y408013D01*
X894016Y408870D01*
X893159Y409299D01*
X891873D01*
X897272D02*
Y405014D01*
X897701Y403728D01*
X898558Y403300D01*
X899843D01*
X900700Y403728D01*
X901986Y405014D01*
Y409299D02*
Y403300D01*
X904342Y409299D02*
Y403300D01*
Y407585D02*
X905628Y408870D01*
X906485Y409299D01*
X907770D01*
X908627Y408870D01*
X909056Y407585D01*
Y403300D01*
X916554Y412298D02*
Y403300D01*
Y408013D02*
X915697Y408870D01*
X914840Y409299D01*
X913554D01*
X912698Y408870D01*
X911841Y408013D01*
X911412Y406728D01*
Y405871D01*
X911841Y404585D01*
X912698Y403728D01*
X913554Y403300D01*
X914840D01*
X915697Y403728D01*
X916554Y404585D01*
X604843Y394298D02*
X600558Y388299D01*
X606985D01*
X604843Y394298D02*
Y385300D01*
X612855Y394298D02*
X608570Y388299D01*
X614997D01*
X612855Y394298D02*
Y385300D01*
X685263Y392156D02*
Y392584D01*
X685691Y393441D01*
X686120Y393870D01*
X686977Y394298D01*
X688691D01*
X689548Y393870D01*
X689976Y393441D01*
X690405Y392584D01*
Y391727D01*
X689976Y390870D01*
X689119Y389585D01*
X684834Y385300D01*
X690833D01*
X697989Y394298D02*
X693704D01*
X693275Y390442D01*
X693704Y390870D01*
X694989Y391299D01*
X696275D01*
X697560Y390870D01*
X698417Y390013D01*
X698846Y388728D01*
Y387871D01*
X698417Y386585D01*
X697560Y385729D01*
X696275Y385300D01*
X694989D01*
X693704Y385729D01*
X693275Y386157D01*
X692847Y387014D01*
X700860Y391299D02*
Y385300D01*
Y389585D02*
X702145Y390870D01*
X703002Y391299D01*
X704287D01*
X705144Y390870D01*
X705573Y389585D01*
Y385300D01*
Y389585D02*
X706858Y390870D01*
X707715Y391299D01*
X709001D01*
X709858Y390870D01*
X710286Y389585D01*
Y385300D01*
X713971Y394298D02*
X714399Y393870D01*
X714828Y394298D01*
X714399Y394726D01*
X713971Y394298D01*
X714399Y391299D02*
Y385300D01*
X716413Y394298D02*
Y385300D01*
X728368Y396012D02*
X727511Y395155D01*
X726654Y393870D01*
X725797Y392156D01*
X725369Y390013D01*
Y388299D01*
X725797Y386157D01*
X726654Y384443D01*
X727511Y383158D01*
X728368Y382301D01*
X727511Y395155D02*
X726654Y393441D01*
X726226Y392156D01*
X725797Y390013D01*
Y388299D01*
X726226Y386157D01*
X726654Y384872D01*
X727511Y383158D01*
X732653Y394298D02*
X731367Y393870D01*
X730510Y392584D01*
X730082Y390442D01*
Y389156D01*
X730510Y387014D01*
X731367Y385729D01*
X732653Y385300D01*
X733510D01*
X734795Y385729D01*
X735652Y387014D01*
X736081Y389156D01*
Y390442D01*
X735652Y392584D01*
X734795Y393870D01*
X733510Y394298D01*
X732653D01*
X738523Y386157D02*
X738094Y385729D01*
X738523Y385300D01*
X738951Y385729D01*
X738523Y386157D01*
X746064Y393013D02*
X745636Y393870D01*
X744350Y394298D01*
X743493D01*
X742208Y393870D01*
X741351Y392584D01*
X740922Y390442D01*
Y388299D01*
X741351Y386585D01*
X742208Y385729D01*
X743493Y385300D01*
X743922D01*
X745207Y385729D01*
X746064Y386585D01*
X746493Y387871D01*
Y388299D01*
X746064Y389585D01*
X745207Y390442D01*
X743922Y390870D01*
X743493D01*
X742208Y390442D01*
X741351Y389585D01*
X740922Y388299D01*
X749321Y394298D02*
X754034D01*
X751463Y390870D01*
X752748D01*
X753605Y390442D01*
X754034Y390013D01*
X754462Y388728D01*
Y387871D01*
X754034Y386585D01*
X753177Y385729D01*
X751892Y385300D01*
X750606D01*
X749321Y385729D01*
X748892Y386157D01*
X748464Y387014D01*
X761618Y394298D02*
X757333D01*
X756905Y390442D01*
X757333Y390870D01*
X758619Y391299D01*
X759904D01*
X761190Y390870D01*
X762046Y390013D01*
X762475Y388728D01*
Y387871D01*
X762046Y386585D01*
X761190Y385729D01*
X759904Y385300D01*
X758619D01*
X757333Y385729D01*
X756905Y386157D01*
X756476Y387014D01*
X764489Y391299D02*
Y385300D01*
Y389585D02*
X765774Y390870D01*
X766631Y391299D01*
X767917D01*
X768774Y390870D01*
X769202Y389585D01*
Y385300D01*
Y389585D02*
X770487Y390870D01*
X771344Y391299D01*
X772630D01*
X773487Y390870D01*
X773915Y389585D01*
Y385300D01*
X776743Y391299D02*
Y385300D01*
Y389585D02*
X778029Y390870D01*
X778886Y391299D01*
X780171D01*
X781028Y390870D01*
X781457Y389585D01*
Y385300D01*
Y389585D02*
X782742Y390870D01*
X783599Y391299D01*
X784884D01*
X785741Y390870D01*
X786170Y389585D01*
Y385300D01*
X788998Y396012D02*
X789855Y395155D01*
X790712Y393870D01*
X791569Y392156D01*
X791997Y390013D01*
Y388299D01*
X791569Y386157D01*
X790712Y384443D01*
X789855Y383158D01*
X788998Y382301D01*
X789855Y395155D02*
X790712Y393441D01*
X791140Y392156D01*
X791569Y390013D01*
Y388299D01*
X791140Y386157D01*
X790712Y384872D01*
X789855Y383158D01*
X825362Y389585D02*
X829218D01*
X830503Y390013D01*
X830932Y390442D01*
X831360Y391299D01*
Y392584D01*
X830932Y393441D01*
X830503Y393870D01*
X829218Y394298D01*
X825362D01*
Y385300D01*
X836374Y394298D02*
Y385300D01*
X833374Y394298D02*
X839373D01*
X840444D02*
Y385300D01*
X846443Y394298D02*
Y385300D01*
X840444Y390013D02*
X846443D01*
X881719Y394298D02*
Y385300D01*
Y394298D02*
X885575D01*
X886860Y393870D01*
X887289Y393441D01*
X887717Y392584D01*
Y391727D01*
X887289Y390870D01*
X886860Y390442D01*
X885575Y390013D01*
X881719D01*
X884718D02*
X887717Y385300D01*
X891873Y391299D02*
X891016Y390870D01*
X890160Y390013D01*
X889731Y388728D01*
Y387871D01*
X890160Y386585D01*
X891016Y385729D01*
X891873Y385300D01*
X893159D01*
X894016Y385729D01*
X894873Y386585D01*
X895301Y387871D01*
Y388728D01*
X894873Y390013D01*
X894016Y390870D01*
X893159Y391299D01*
X891873D01*
X897272D02*
Y387014D01*
X897701Y385729D01*
X898558Y385300D01*
X899843D01*
X900700Y385729D01*
X901986Y387014D01*
Y391299D02*
Y385300D01*
X904342Y391299D02*
Y385300D01*
Y389585D02*
X905628Y390870D01*
X906485Y391299D01*
X907770D01*
X908627Y390870D01*
X909056Y389585D01*
Y385300D01*
X916554Y394298D02*
Y385300D01*
Y390013D02*
X915697Y390870D01*
X914840Y391299D01*
X913554D01*
X912698Y390870D01*
X911841Y390013D01*
X911412Y388728D01*
Y387871D01*
X911841Y386585D01*
X912698Y385729D01*
X913554Y385300D01*
X914840D01*
X915697Y385729D01*
X916554Y386585D01*
X600986Y374156D02*
Y374584D01*
X601415Y375441D01*
X601843Y375870D01*
X602700Y376298D01*
X604414D01*
X605271Y375870D01*
X605699Y375441D01*
X606128Y374584D01*
Y373727D01*
X605699Y372870D01*
X604843Y371585D01*
X600558Y367300D01*
X606557D01*
X611141Y376298D02*
X609856Y375870D01*
X608999Y374584D01*
X608570Y372442D01*
Y371156D01*
X608999Y369014D01*
X609856Y367728D01*
X611141Y367300D01*
X611998D01*
X613284Y367728D01*
X614141Y369014D01*
X614569Y371156D01*
Y372442D01*
X614141Y374584D01*
X613284Y375870D01*
X611998Y376298D01*
X611141D01*
X685263Y374156D02*
Y374584D01*
X685691Y375441D01*
X686120Y375870D01*
X686977Y376298D01*
X688691D01*
X689548Y375870D01*
X689976Y375441D01*
X690405Y374584D01*
Y373727D01*
X689976Y372870D01*
X689119Y371585D01*
X684834Y367300D01*
X690833D01*
X694989Y376298D02*
X693704Y375870D01*
X693275Y375013D01*
Y374156D01*
X693704Y373299D01*
X694561Y372870D01*
X696275Y372442D01*
X697560Y372013D01*
X698417Y371156D01*
X698846Y370299D01*
Y369014D01*
X698417Y368157D01*
X697989Y367728D01*
X696703Y367300D01*
X694989D01*
X693704Y367728D01*
X693275Y368157D01*
X692847Y369014D01*
Y370299D01*
X693275Y371156D01*
X694132Y372013D01*
X695418Y372442D01*
X697132Y372870D01*
X697989Y373299D01*
X698417Y374156D01*
Y375013D01*
X697989Y375870D01*
X696703Y376298D01*
X694989D01*
X700860Y373299D02*
Y367300D01*
Y371585D02*
X702145Y372870D01*
X703002Y373299D01*
X704287D01*
X705144Y372870D01*
X705573Y371585D01*
Y367300D01*
Y371585D02*
X706858Y372870D01*
X707715Y373299D01*
X709001D01*
X709858Y372870D01*
X710286Y371585D01*
Y367300D01*
X713971Y376298D02*
X714399Y375870D01*
X714828Y376298D01*
X714399Y376727D01*
X713971Y376298D01*
X714399Y373299D02*
Y367300D01*
X716413Y376298D02*
Y367300D01*
X728368Y378012D02*
X727511Y377155D01*
X726654Y375870D01*
X725797Y374156D01*
X725369Y372013D01*
Y370299D01*
X725797Y368157D01*
X726654Y366443D01*
X727511Y365158D01*
X728368Y364301D01*
X727511Y377155D02*
X726654Y375441D01*
X726226Y374156D01*
X725797Y372013D01*
Y370299D01*
X726226Y368157D01*
X726654Y366872D01*
X727511Y365158D01*
X732653Y376298D02*
X731367Y375870D01*
X730510Y374584D01*
X730082Y372442D01*
Y371156D01*
X730510Y369014D01*
X731367Y367728D01*
X732653Y367300D01*
X733510D01*
X734795Y367728D01*
X735652Y369014D01*
X736081Y371156D01*
Y372442D01*
X735652Y374584D01*
X734795Y375870D01*
X733510Y376298D01*
X732653D01*
X738523Y368157D02*
X738094Y367728D01*
X738523Y367300D01*
X738951Y367728D01*
X738523Y368157D01*
X746921Y376298D02*
X742636Y367300D01*
X740922Y376298D02*
X746921D01*
X748935Y374584D02*
X749792Y375013D01*
X751077Y376298D01*
Y367300D01*
X755534Y374584D02*
X756390Y375013D01*
X757676Y376298D01*
Y367300D01*
X762561Y374156D02*
Y374584D01*
X762989Y375441D01*
X763418Y375870D01*
X764275Y376298D01*
X765988D01*
X766845Y375870D01*
X767274Y375441D01*
X767702Y374584D01*
Y373727D01*
X767274Y372870D01*
X766417Y371585D01*
X762132Y367300D01*
X768131D01*
X770145Y373299D02*
Y367300D01*
Y371585D02*
X771430Y372870D01*
X772287Y373299D01*
X773573D01*
X774430Y372870D01*
X774858Y371585D01*
Y367300D01*
Y371585D02*
X776143Y372870D01*
X777000Y373299D01*
X778286D01*
X779143Y372870D01*
X779571Y371585D01*
Y367300D01*
X782399Y373299D02*
Y367300D01*
Y371585D02*
X783685Y372870D01*
X784542Y373299D01*
X785827D01*
X786684Y372870D01*
X787113Y371585D01*
Y367300D01*
Y371585D02*
X788398Y372870D01*
X789255Y373299D01*
X790540D01*
X791397Y372870D01*
X791826Y371585D01*
Y367300D01*
X794654Y378012D02*
X795511Y377155D01*
X796368Y375870D01*
X797225Y374156D01*
X797653Y372013D01*
Y370299D01*
X797225Y368157D01*
X796368Y366443D01*
X795511Y365158D01*
X794654Y364301D01*
X795511Y377155D02*
X796368Y375441D01*
X796796Y374156D01*
X797225Y372013D01*
Y370299D01*
X796796Y368157D01*
X796368Y366872D01*
X795511Y365158D01*
X825362Y371585D02*
X829218D01*
X830503Y372013D01*
X830932Y372442D01*
X831360Y373299D01*
Y374584D01*
X830932Y375441D01*
X830503Y375870D01*
X829218Y376298D01*
X825362D01*
Y367300D01*
X836374Y376298D02*
Y367300D01*
X833374Y376298D02*
X839373D01*
X840444D02*
Y367300D01*
X846443Y376298D02*
Y367300D01*
X840444Y372013D02*
X846443D01*
X881719Y376298D02*
Y367300D01*
Y376298D02*
X885575D01*
X886860Y375870D01*
X887289Y375441D01*
X887717Y374584D01*
Y373727D01*
X887289Y372870D01*
X886860Y372442D01*
X885575Y372013D01*
X881719D01*
X884718D02*
X887717Y367300D01*
X891873Y373299D02*
X891016Y372870D01*
X890160Y372013D01*
X889731Y370728D01*
Y369871D01*
X890160Y368585D01*
X891016Y367728D01*
X891873Y367300D01*
X893159D01*
X894016Y367728D01*
X894873Y368585D01*
X895301Y369871D01*
Y370728D01*
X894873Y372013D01*
X894016Y372870D01*
X893159Y373299D01*
X891873D01*
X897272D02*
Y369014D01*
X897701Y367728D01*
X898558Y367300D01*
X899843D01*
X900700Y367728D01*
X901986Y369014D01*
Y373299D02*
Y367300D01*
X904342Y373299D02*
Y367300D01*
Y371585D02*
X905628Y372870D01*
X906485Y373299D01*
X907770D01*
X908627Y372870D01*
X909056Y371585D01*
Y367300D01*
X916554Y376298D02*
Y367300D01*
Y372013D02*
X915697Y372870D01*
X914840Y373299D01*
X913554D01*
X912698Y372870D01*
X911841Y372013D01*
X911412Y370728D01*
Y369871D01*
X911841Y368585D01*
X912698Y367728D01*
X913554Y367300D01*
X914840D01*
X915697Y367728D01*
X916554Y368585D01*
X604843Y358298D02*
X600558Y352299D01*
X606985D01*
X604843Y358298D02*
Y349300D01*
X685263Y356156D02*
Y356584D01*
X685691Y357441D01*
X686120Y357870D01*
X686977Y358298D01*
X688691D01*
X689548Y357870D01*
X689976Y357441D01*
X690405Y356584D01*
Y355727D01*
X689976Y354870D01*
X689119Y353585D01*
X684834Y349300D01*
X690833D01*
X698417Y355299D02*
X697989Y354013D01*
X697132Y353156D01*
X695846Y352728D01*
X695418D01*
X694132Y353156D01*
X693275Y354013D01*
X692847Y355299D01*
Y355727D01*
X693275Y357013D01*
X694132Y357870D01*
X695418Y358298D01*
X695846D01*
X697132Y357870D01*
X697989Y357013D01*
X698417Y355299D01*
Y353156D01*
X697989Y351014D01*
X697132Y349728D01*
X695846Y349300D01*
X694989D01*
X693704Y349728D01*
X693275Y350585D01*
X701288Y350157D02*
X700860Y349728D01*
X701288Y349300D01*
X701717Y349728D01*
X701288Y350157D01*
X708829Y358298D02*
X704544D01*
X704116Y354442D01*
X704544Y354870D01*
X705830Y355299D01*
X707115D01*
X708401Y354870D01*
X709258Y354013D01*
X709686Y352728D01*
Y351871D01*
X709258Y350585D01*
X708401Y349728D01*
X707115Y349300D01*
X705830D01*
X704544Y349728D01*
X704116Y350157D01*
X703687Y351014D01*
X712129Y356156D02*
Y356584D01*
X712557Y357441D01*
X712986Y357870D01*
X713842Y358298D01*
X715556D01*
X716413Y357870D01*
X716842Y357441D01*
X717270Y356584D01*
Y355727D01*
X716842Y354870D01*
X715985Y353585D01*
X711700Y349300D01*
X717699D01*
X721855Y358298D02*
X720570Y357870D01*
X720141Y357013D01*
Y356156D01*
X720570Y355299D01*
X721427Y354870D01*
X723140Y354442D01*
X724426Y354013D01*
X725283Y353156D01*
X725711Y352299D01*
Y351014D01*
X725283Y350157D01*
X724854Y349728D01*
X723569Y349300D01*
X721855D01*
X720570Y349728D01*
X720141Y350157D01*
X719713Y351014D01*
Y352299D01*
X720141Y353156D01*
X720998Y354013D01*
X722284Y354442D01*
X723997Y354870D01*
X724854Y355299D01*
X725283Y356156D01*
Y357013D01*
X724854Y357870D01*
X723569Y358298D01*
X721855D01*
X727725Y355299D02*
Y349300D01*
Y353585D02*
X729011Y354870D01*
X729868Y355299D01*
X731153D01*
X732010Y354870D01*
X732439Y353585D01*
Y349300D01*
Y353585D02*
X733724Y354870D01*
X734581Y355299D01*
X735866D01*
X736723Y354870D01*
X737152Y353585D01*
Y349300D01*
X740837Y358298D02*
X741265Y357870D01*
X741694Y358298D01*
X741265Y358727D01*
X740837Y358298D01*
X741265Y355299D02*
Y349300D01*
X743279Y358298D02*
Y349300D01*
X755234Y360012D02*
X754377Y359155D01*
X753520Y357870D01*
X752663Y356156D01*
X752234Y354013D01*
Y352299D01*
X752663Y350157D01*
X753520Y348443D01*
X754377Y347158D01*
X755234Y346301D01*
X754377Y359155D02*
X753520Y357441D01*
X753091Y356156D01*
X752663Y354013D01*
Y352299D01*
X753091Y350157D01*
X753520Y348871D01*
X754377Y347158D01*
X759518Y358298D02*
X758233Y357870D01*
X757376Y356584D01*
X756948Y354442D01*
Y353156D01*
X757376Y351014D01*
X758233Y349728D01*
X759518Y349300D01*
X760375D01*
X761661Y349728D01*
X762518Y351014D01*
X762946Y353156D01*
Y354442D01*
X762518Y356584D01*
X761661Y357870D01*
X760375Y358298D01*
X759518D01*
X765389Y350157D02*
X764960Y349728D01*
X765389Y349300D01*
X765817Y349728D01*
X765389Y350157D01*
X773787Y358298D02*
X769502Y349300D01*
X767788Y358298D02*
X773787D01*
X780942D02*
X776658D01*
X776229Y354442D01*
X776658Y354870D01*
X777943Y355299D01*
X779228D01*
X780514Y354870D01*
X781371Y354013D01*
X781799Y352728D01*
Y351871D01*
X781371Y350585D01*
X780514Y349728D01*
X779228Y349300D01*
X777943D01*
X776658Y349728D01*
X776229Y350157D01*
X775801Y351014D01*
X783813Y355299D02*
Y349300D01*
Y353585D02*
X785099Y354870D01*
X785956Y355299D01*
X787241D01*
X788098Y354870D01*
X788526Y353585D01*
Y349300D01*
Y353585D02*
X789812Y354870D01*
X790669Y355299D01*
X791954D01*
X792811Y354870D01*
X793240Y353585D01*
Y349300D01*
X796068Y355299D02*
Y349300D01*
Y353585D02*
X797353Y354870D01*
X798210Y355299D01*
X799496D01*
X800352Y354870D01*
X800781Y353585D01*
Y349300D01*
Y353585D02*
X802066Y354870D01*
X802923Y355299D01*
X804209D01*
X805066Y354870D01*
X805494Y353585D01*
Y349300D01*
X808322Y360012D02*
X809179Y359155D01*
X810036Y357870D01*
X810893Y356156D01*
X811322Y354013D01*
Y352299D01*
X810893Y350157D01*
X810036Y348443D01*
X809179Y347158D01*
X808322Y346301D01*
X809179Y359155D02*
X810036Y357441D01*
X810465Y356156D01*
X810893Y354013D01*
Y352299D01*
X810465Y350157D01*
X810036Y348871D01*
X809179Y347158D01*
X825362Y353585D02*
X829218D01*
X830503Y354013D01*
X830932Y354442D01*
X831360Y355299D01*
Y356584D01*
X830932Y357441D01*
X830503Y357870D01*
X829218Y358298D01*
X825362D01*
Y349300D01*
X836374Y358298D02*
Y349300D01*
X833374Y358298D02*
X839373D01*
X840444D02*
Y349300D01*
X846443Y358298D02*
Y349300D01*
X840444Y354013D02*
X846443D01*
X881719Y358298D02*
Y349300D01*
Y358298D02*
X885575D01*
X886860Y357870D01*
X887289Y357441D01*
X887717Y356584D01*
Y355727D01*
X887289Y354870D01*
X886860Y354442D01*
X885575Y354013D01*
X881719D01*
X884718D02*
X887717Y349300D01*
X891873Y355299D02*
X891016Y354870D01*
X890160Y354013D01*
X889731Y352728D01*
Y351871D01*
X890160Y350585D01*
X891016Y349728D01*
X891873Y349300D01*
X893159D01*
X894016Y349728D01*
X894873Y350585D01*
X895301Y351871D01*
Y352728D01*
X894873Y354013D01*
X894016Y354870D01*
X893159Y355299D01*
X891873D01*
X897272D02*
Y351014D01*
X897701Y349728D01*
X898558Y349300D01*
X899843D01*
X900700Y349728D01*
X901986Y351014D01*
Y355299D02*
Y349300D01*
X904342Y355299D02*
Y349300D01*
Y353585D02*
X905628Y354870D01*
X906485Y355299D01*
X907770D01*
X908627Y354870D01*
X909056Y353585D01*
Y349300D01*
X916554Y358298D02*
Y349300D01*
Y354013D02*
X915697Y354870D01*
X914840Y355299D01*
X913554D01*
X912698Y354870D01*
X911841Y354013D01*
X911412Y352728D01*
Y351871D01*
X911841Y350585D01*
X912698Y349728D01*
X913554Y349300D01*
X914840D01*
X915697Y349728D01*
X916554Y350585D01*
X600558Y338584D02*
X601415Y339013D01*
X602700Y340298D01*
Y331300D01*
X609727Y340298D02*
X608442Y339870D01*
X607585Y338584D01*
X607156Y336442D01*
Y335156D01*
X607585Y333014D01*
X608442Y331729D01*
X609727Y331300D01*
X610584D01*
X611870Y331729D01*
X612727Y333014D01*
X613155Y335156D01*
Y336442D01*
X612727Y338584D01*
X611870Y339870D01*
X610584Y340298D01*
X609727D01*
X685691D02*
X690405D01*
X687834Y336870D01*
X689119D01*
X689976Y336442D01*
X690405Y336013D01*
X690833Y334728D01*
Y333871D01*
X690405Y332585D01*
X689548Y331729D01*
X688262Y331300D01*
X686977D01*
X685691Y331729D01*
X685263Y332157D01*
X684834Y333014D01*
X693704Y340298D02*
X698417D01*
X695846Y336870D01*
X697132D01*
X697989Y336442D01*
X698417Y336013D01*
X698846Y334728D01*
Y333871D01*
X698417Y332585D01*
X697560Y331729D01*
X696275Y331300D01*
X694989D01*
X693704Y331729D01*
X693275Y332157D01*
X692847Y333014D01*
X701288Y332157D02*
X700860Y331729D01*
X701288Y331300D01*
X701717Y331729D01*
X701288Y332157D01*
X707972Y340298D02*
X703687Y334299D01*
X710115D01*
X707972Y340298D02*
Y331300D01*
X716842Y339013D02*
X716413Y339870D01*
X715128Y340298D01*
X714271D01*
X712986Y339870D01*
X712129Y338584D01*
X711700Y336442D01*
Y334299D01*
X712129Y332585D01*
X712986Y331729D01*
X714271Y331300D01*
X714699D01*
X715985Y331729D01*
X716842Y332585D01*
X717270Y333871D01*
Y334299D01*
X716842Y335585D01*
X715985Y336442D01*
X714699Y336870D01*
X714271D01*
X712986Y336442D01*
X712129Y335585D01*
X711700Y334299D01*
X724383Y340298D02*
X720098D01*
X719670Y336442D01*
X720098Y336870D01*
X721384Y337299D01*
X722669D01*
X723955Y336870D01*
X724812Y336013D01*
X725240Y334728D01*
Y333871D01*
X724812Y332585D01*
X723955Y331729D01*
X722669Y331300D01*
X721384D01*
X720098Y331729D01*
X719670Y332157D01*
X719241Y333014D01*
X727254Y337299D02*
Y331300D01*
Y335585D02*
X728539Y336870D01*
X729396Y337299D01*
X730682D01*
X731539Y336870D01*
X731967Y335585D01*
Y331300D01*
Y335585D02*
X733253Y336870D01*
X734110Y337299D01*
X735395D01*
X736252Y336870D01*
X736681Y335585D01*
Y331300D01*
X740365Y340298D02*
X740794Y339870D01*
X741222Y340298D01*
X740794Y340726D01*
X740365Y340298D01*
X740794Y337299D02*
Y331300D01*
X742808Y340298D02*
Y331300D01*
X754762Y342012D02*
X753905Y341155D01*
X753048Y339870D01*
X752191Y338156D01*
X751763Y336013D01*
Y334299D01*
X752191Y332157D01*
X753048Y330443D01*
X753905Y329158D01*
X754762Y328301D01*
X753905Y341155D02*
X753048Y339441D01*
X752620Y338156D01*
X752191Y336013D01*
Y334299D01*
X752620Y332157D01*
X753048Y330872D01*
X753905Y329158D01*
X759047Y340298D02*
X757762Y339870D01*
X756905Y338584D01*
X756476Y336442D01*
Y335156D01*
X756905Y333014D01*
X757762Y331729D01*
X759047Y331300D01*
X759904D01*
X761190Y331729D01*
X762046Y333014D01*
X762475Y335156D01*
Y336442D01*
X762046Y338584D01*
X761190Y339870D01*
X759904Y340298D01*
X759047D01*
X764917Y332157D02*
X764489Y331729D01*
X764917Y331300D01*
X765346Y331729D01*
X764917Y332157D01*
X769459Y340298D02*
X768174Y339870D01*
X767745Y339013D01*
Y338156D01*
X768174Y337299D01*
X769031Y336870D01*
X770745Y336442D01*
X772030Y336013D01*
X772887Y335156D01*
X773315Y334299D01*
Y333014D01*
X772887Y332157D01*
X772459Y331729D01*
X771173Y331300D01*
X769459D01*
X768174Y331729D01*
X767745Y332157D01*
X767317Y333014D01*
Y334299D01*
X767745Y335156D01*
X768602Y336013D01*
X769888Y336442D01*
X771602Y336870D01*
X772459Y337299D01*
X772887Y338156D01*
Y339013D01*
X772459Y339870D01*
X771173Y340298D01*
X769459D01*
X780471D02*
X776186D01*
X775758Y336442D01*
X776186Y336870D01*
X777472Y337299D01*
X778757D01*
X780043Y336870D01*
X780899Y336013D01*
X781328Y334728D01*
Y333871D01*
X780899Y332585D01*
X780043Y331729D01*
X778757Y331300D01*
X777472D01*
X776186Y331729D01*
X775758Y332157D01*
X775329Y333014D01*
X783342Y337299D02*
Y331300D01*
Y335585D02*
X784627Y336870D01*
X785484Y337299D01*
X786770D01*
X787627Y336870D01*
X788055Y335585D01*
Y331300D01*
Y335585D02*
X789341Y336870D01*
X790198Y337299D01*
X791483D01*
X792340Y336870D01*
X792768Y335585D01*
Y331300D01*
X795596Y337299D02*
Y331300D01*
Y335585D02*
X796882Y336870D01*
X797739Y337299D01*
X799024D01*
X799881Y336870D01*
X800310Y335585D01*
Y331300D01*
Y335585D02*
X801595Y336870D01*
X802452Y337299D01*
X803738D01*
X804595Y336870D01*
X805023Y335585D01*
Y331300D01*
X807851Y342012D02*
X808708Y341155D01*
X809565Y339870D01*
X810422Y338156D01*
X810850Y336013D01*
Y334299D01*
X810422Y332157D01*
X809565Y330443D01*
X808708Y329158D01*
X807851Y328301D01*
X808708Y341155D02*
X809565Y339441D01*
X809993Y338156D01*
X810422Y336013D01*
Y334299D01*
X809993Y332157D01*
X809565Y330872D01*
X808708Y329158D01*
X825362Y335585D02*
X829218D01*
X830503Y336013D01*
X830932Y336442D01*
X831360Y337299D01*
Y338584D01*
X830932Y339441D01*
X830503Y339870D01*
X829218Y340298D01*
X825362D01*
Y331300D01*
X836374Y340298D02*
Y331300D01*
X833374Y340298D02*
X839373D01*
X840444D02*
Y331300D01*
X846443Y340298D02*
Y331300D01*
X840444Y336013D02*
X846443D01*
X881719Y340298D02*
Y331300D01*
Y340298D02*
X885575D01*
X886860Y339870D01*
X887289Y339441D01*
X887717Y338584D01*
Y337727D01*
X887289Y336870D01*
X886860Y336442D01*
X885575Y336013D01*
X881719D01*
X884718D02*
X887717Y331300D01*
X891873Y337299D02*
X891016Y336870D01*
X890160Y336013D01*
X889731Y334728D01*
Y333871D01*
X890160Y332585D01*
X891016Y331729D01*
X891873Y331300D01*
X893159D01*
X894016Y331729D01*
X894873Y332585D01*
X895301Y333871D01*
Y334728D01*
X894873Y336013D01*
X894016Y336870D01*
X893159Y337299D01*
X891873D01*
X897272D02*
Y333014D01*
X897701Y331729D01*
X898558Y331300D01*
X899843D01*
X900700Y331729D01*
X901986Y333014D01*
Y337299D02*
Y331300D01*
X904342Y337299D02*
Y331300D01*
Y335585D02*
X905628Y336870D01*
X906485Y337299D01*
X907770D01*
X908627Y336870D01*
X909056Y335585D01*
Y331300D01*
X916554Y340298D02*
Y331300D01*
Y336013D02*
X915697Y336870D01*
X914840Y337299D01*
X913554D01*
X912698Y336870D01*
X911841Y336013D01*
X911412Y334728D01*
Y333871D01*
X911841Y332585D01*
X912698Y331729D01*
X913554Y331300D01*
X914840D01*
X915697Y331729D01*
X916554Y332585D01*
X600558Y320584D02*
X601415Y321013D01*
X602700Y322298D01*
Y313300D01*
X613155Y322298D02*
X608870Y313300D01*
X607156Y322298D02*
X613155D01*
X617740D02*
X616454Y321870D01*
X615597Y320584D01*
X615169Y318442D01*
Y317156D01*
X615597Y315014D01*
X616454Y313728D01*
X617740Y313300D01*
X618597D01*
X619882Y313728D01*
X620739Y315014D01*
X621168Y317156D01*
Y318442D01*
X620739Y320584D01*
X619882Y321870D01*
X618597Y322298D01*
X617740D01*
X685691D02*
X690405D01*
X687834Y318870D01*
X689119D01*
X689976Y318442D01*
X690405Y318013D01*
X690833Y316728D01*
Y315871D01*
X690405Y314585D01*
X689548Y313728D01*
X688262Y313300D01*
X686977D01*
X685691Y313728D01*
X685263Y314157D01*
X684834Y315014D01*
X697989Y322298D02*
X693704D01*
X693275Y318442D01*
X693704Y318870D01*
X694989Y319299D01*
X696275D01*
X697560Y318870D01*
X698417Y318013D01*
X698846Y316728D01*
Y315871D01*
X698417Y314585D01*
X697560Y313728D01*
X696275Y313300D01*
X694989D01*
X693704Y313728D01*
X693275Y314157D01*
X692847Y315014D01*
X701288Y314157D02*
X700860Y313728D01*
X701288Y313300D01*
X701717Y313728D01*
X701288Y314157D01*
X707972Y322298D02*
X703687Y316299D01*
X710115D01*
X707972Y322298D02*
Y313300D01*
X712557Y322298D02*
X717270D01*
X714699Y318870D01*
X715985D01*
X716842Y318442D01*
X717270Y318013D01*
X717699Y316728D01*
Y315871D01*
X717270Y314585D01*
X716413Y313728D01*
X715128Y313300D01*
X713842D01*
X712557Y313728D01*
X712129Y314157D01*
X711700Y315014D01*
X720570Y322298D02*
X725283D01*
X722712Y318870D01*
X723997D01*
X724854Y318442D01*
X725283Y318013D01*
X725711Y316728D01*
Y315871D01*
X725283Y314585D01*
X724426Y313728D01*
X723140Y313300D01*
X721855D01*
X720570Y313728D01*
X720141Y314157D01*
X719713Y315014D01*
X727725Y319299D02*
Y313300D01*
Y317585D02*
X729011Y318870D01*
X729868Y319299D01*
X731153D01*
X732010Y318870D01*
X732439Y317585D01*
Y313300D01*
Y317585D02*
X733724Y318870D01*
X734581Y319299D01*
X735866D01*
X736723Y318870D01*
X737152Y317585D01*
Y313300D01*
X740837Y322298D02*
X741265Y321870D01*
X741694Y322298D01*
X741265Y322726D01*
X740837Y322298D01*
X741265Y319299D02*
Y313300D01*
X743279Y322298D02*
Y313300D01*
X755234Y324012D02*
X754377Y323155D01*
X753520Y321870D01*
X752663Y320156D01*
X752234Y318013D01*
Y316299D01*
X752663Y314157D01*
X753520Y312443D01*
X754377Y311158D01*
X755234Y310301D01*
X754377Y323155D02*
X753520Y321441D01*
X753091Y320156D01*
X752663Y318013D01*
Y316299D01*
X753091Y314157D01*
X753520Y312872D01*
X754377Y311158D01*
X759518Y322298D02*
X758233Y321870D01*
X757376Y320584D01*
X756948Y318442D01*
Y317156D01*
X757376Y315014D01*
X758233Y313728D01*
X759518Y313300D01*
X760375D01*
X761661Y313728D01*
X762518Y315014D01*
X762946Y317156D01*
Y318442D01*
X762518Y320584D01*
X761661Y321870D01*
X760375Y322298D01*
X759518D01*
X765389Y314157D02*
X764960Y313728D01*
X765389Y313300D01*
X765817Y313728D01*
X765389Y314157D01*
X773358Y319299D02*
X772930Y318013D01*
X772073Y317156D01*
X770787Y316728D01*
X770359D01*
X769073Y317156D01*
X768217Y318013D01*
X767788Y319299D01*
Y319727D01*
X768217Y321013D01*
X769073Y321870D01*
X770359Y322298D01*
X770787D01*
X772073Y321870D01*
X772930Y321013D01*
X773358Y319299D01*
Y317156D01*
X772930Y315014D01*
X772073Y313728D01*
X770787Y313300D01*
X769931D01*
X768645Y313728D01*
X768217Y314585D01*
X775801Y319299D02*
Y313300D01*
Y317585D02*
X777086Y318870D01*
X777943Y319299D01*
X779228D01*
X780086Y318870D01*
X780514Y317585D01*
Y313300D01*
Y317585D02*
X781799Y318870D01*
X782656Y319299D01*
X783942D01*
X784799Y318870D01*
X785227Y317585D01*
Y313300D01*
X788055Y319299D02*
Y313300D01*
Y317585D02*
X789341Y318870D01*
X790198Y319299D01*
X791483D01*
X792340Y318870D01*
X792768Y317585D01*
Y313300D01*
Y317585D02*
X794054Y318870D01*
X794911Y319299D01*
X796196D01*
X797053Y318870D01*
X797482Y317585D01*
Y313300D01*
X800310Y324012D02*
X801167Y323155D01*
X802024Y321870D01*
X802881Y320156D01*
X803309Y318013D01*
Y316299D01*
X802881Y314157D01*
X802024Y312443D01*
X801167Y311158D01*
X800310Y310301D01*
X801167Y323155D02*
X802024Y321441D01*
X802452Y320156D01*
X802881Y318013D01*
Y316299D01*
X802452Y314157D01*
X802024Y312872D01*
X801167Y311158D01*
X825362Y317585D02*
X829218D01*
X830503Y318013D01*
X830932Y318442D01*
X831360Y319299D01*
Y320584D01*
X830932Y321441D01*
X830503Y321870D01*
X829218Y322298D01*
X825362D01*
Y313300D01*
X836374Y322298D02*
Y313300D01*
X833374Y322298D02*
X839373D01*
X840444D02*
Y313300D01*
X846443Y322298D02*
Y313300D01*
X840444Y318013D02*
X846443D01*
X881719Y322298D02*
Y313300D01*
Y322298D02*
X885575D01*
X886860Y321870D01*
X887289Y321441D01*
X887717Y320584D01*
Y319727D01*
X887289Y318870D01*
X886860Y318442D01*
X885575Y318013D01*
X881719D01*
X884718D02*
X887717Y313300D01*
X891873Y319299D02*
X891016Y318870D01*
X890160Y318013D01*
X889731Y316728D01*
Y315871D01*
X890160Y314585D01*
X891016Y313728D01*
X891873Y313300D01*
X893159D01*
X894016Y313728D01*
X894873Y314585D01*
X895301Y315871D01*
Y316728D01*
X894873Y318013D01*
X894016Y318870D01*
X893159Y319299D01*
X891873D01*
X897272D02*
Y315014D01*
X897701Y313728D01*
X898558Y313300D01*
X899843D01*
X900700Y313728D01*
X901986Y315014D01*
Y319299D02*
Y313300D01*
X904342Y319299D02*
Y313300D01*
Y317585D02*
X905628Y318870D01*
X906485Y319299D01*
X907770D01*
X908627Y318870D01*
X909056Y317585D01*
Y313300D01*
X916554Y322298D02*
Y313300D01*
Y318013D02*
X915697Y318870D01*
X914840Y319299D01*
X913554D01*
X912698Y318870D01*
X911841Y318013D01*
X911412Y316728D01*
Y315871D01*
X911841Y314585D01*
X912698Y313728D01*
X913554Y313300D01*
X914840D01*
X915697Y313728D01*
X916554Y314585D01*
X600986Y302156D02*
Y302584D01*
X601415Y303441D01*
X601843Y303870D01*
X602700Y304298D01*
X604414D01*
X605271Y303870D01*
X605699Y303441D01*
X606128Y302584D01*
Y301727D01*
X605699Y300870D01*
X604843Y299585D01*
X600558Y295300D01*
X606557D01*
X613712Y304298D02*
X609427D01*
X608999Y300442D01*
X609427Y300870D01*
X610713Y301299D01*
X611998D01*
X613284Y300870D01*
X614141Y300013D01*
X614569Y298728D01*
Y297871D01*
X614141Y296585D01*
X613284Y295728D01*
X611998Y295300D01*
X610713D01*
X609427Y295728D01*
X608999Y296157D01*
X608570Y297014D01*
X619154Y304298D02*
X617868Y303870D01*
X617011Y302584D01*
X616583Y300442D01*
Y299156D01*
X617011Y297014D01*
X617868Y295728D01*
X619154Y295300D01*
X620011D01*
X621296Y295728D01*
X622153Y297014D01*
X622582Y299156D01*
Y300442D01*
X622153Y302584D01*
X621296Y303870D01*
X620011Y304298D01*
X619154D01*
X639621D02*
Y295300D01*
X636622Y304298D02*
X642620D01*
X645834Y301299D02*
X644977Y300870D01*
X644120Y300013D01*
X643692Y298728D01*
Y297871D01*
X644120Y296585D01*
X644977Y295728D01*
X645834Y295300D01*
X647119D01*
X647976Y295728D01*
X648833Y296585D01*
X649262Y297871D01*
Y298728D01*
X648833Y300013D01*
X647976Y300870D01*
X647119Y301299D01*
X645834D01*
X652518Y304298D02*
Y297014D01*
X652947Y295728D01*
X653804Y295300D01*
X654661D01*
X651233Y301299D02*
X654232D01*
X661088D02*
Y295300D01*
Y300013D02*
X660231Y300870D01*
X659374Y301299D01*
X658088D01*
X657232Y300870D01*
X656375Y300013D01*
X655946Y298728D01*
Y297871D01*
X656375Y296585D01*
X657232Y295728D01*
X658088Y295300D01*
X659374D01*
X660231Y295728D01*
X661088Y296585D01*
X663487Y304298D02*
Y295300D01*
D32*
X360553Y53300D02*
Y57300D01*
X364553D01*
Y53300D01*
X360553D01*
X354647D02*
Y57300D01*
X358647D01*
Y53300D01*
X354647D01*
X143253Y260200D02*
Y264200D01*
X147253D01*
Y260200D01*
X143253D01*
X137347D02*
Y264200D01*
X141347D01*
Y260200D01*
X137347D01*
X107200Y209200D02*
X105200Y213200D01*
X109200D01*
X107200Y209200D01*
X137200D02*
X135200Y213200D01*
X139200D01*
X137200Y209200D01*
X107200Y218000D02*
X105200Y222000D01*
X109200D01*
X107200Y218000D01*
X137200D02*
X135200Y222000D01*
X139200D01*
X137200Y218000D01*
X56400Y250700D02*
X54400Y254700D01*
X58400D01*
X56400Y250700D01*
X26400D02*
X24400Y254700D01*
X28400D01*
X26400Y250700D01*
X145800Y276300D02*
X143800Y280300D01*
X147800D01*
X145800Y276300D01*
X115800D02*
X113800Y280300D01*
X117800D01*
X115800Y276300D01*
X105700Y260400D02*
X103700Y264400D01*
X107700D01*
X105700Y260400D01*
X75700D02*
X73700Y264400D01*
X77700D01*
X75700Y260400D01*
X157700Y235800D02*
X158700Y236800D01*
X159700D01*
X158700Y237800D01*
X159700Y238800D01*
X158700D01*
X157700Y239800D01*
X156700Y238800D01*
X155700D01*
X156700Y237800D01*
X155700Y236800D01*
X156700D01*
X157700Y235800D01*
Y225800D02*
X158700Y226800D01*
X159700D01*
X158700Y227800D01*
X159700Y228800D01*
X158700D01*
X157700Y229800D01*
X156700Y228800D01*
X155700D01*
X156700Y227800D01*
X155700Y226800D01*
X156700D01*
X157700Y225800D01*
Y215800D02*
X158700Y216800D01*
X159700D01*
X158700Y217800D01*
X159700Y218800D01*
X158700D01*
X157700Y219800D01*
X156700Y218800D01*
X155700D01*
X156700Y217800D01*
X155700Y216800D01*
X156700D01*
X157700Y215800D01*
Y205800D02*
X158700Y206800D01*
X159700D01*
X158700Y207800D01*
X159700Y208800D01*
X158700D01*
X157700Y209800D01*
X156700Y208800D01*
X155700D01*
X156700Y207800D01*
X155700Y206800D01*
X156700D01*
X157700Y205800D01*
Y195800D02*
X158700Y196800D01*
X159700D01*
X158700Y197800D01*
X159700Y198800D01*
X158700D01*
X157700Y199800D01*
X156700Y198800D01*
X155700D01*
X156700Y197800D01*
X155700Y196800D01*
X156700D01*
X157700Y195800D01*
Y185800D02*
X158700Y186800D01*
X159700D01*
X158700Y187800D01*
X159700Y188800D01*
X158700D01*
X157700Y189800D01*
X156700Y188800D01*
X155700D01*
X156700Y187800D01*
X155700Y186800D01*
X156700D01*
X157700Y185800D01*
X167700Y245800D02*
X168700Y246800D01*
X169700D01*
X168700Y247800D01*
X169700Y248800D01*
X168700D01*
X167700Y249800D01*
X166700Y248800D01*
X165700D01*
X166700Y247800D01*
X165700Y246800D01*
X166700D01*
X167700Y245800D01*
Y235800D02*
X168700Y236800D01*
X169700D01*
X168700Y237800D01*
X169700Y238800D01*
X168700D01*
X167700Y239800D01*
X166700Y238800D01*
X165700D01*
X166700Y237800D01*
X165700Y236800D01*
X166700D01*
X167700Y235800D01*
Y225800D02*
X168700Y226800D01*
X169700D01*
X168700Y227800D01*
X169700Y228800D01*
X168700D01*
X167700Y229800D01*
X166700Y228800D01*
X165700D01*
X166700Y227800D01*
X165700Y226800D01*
X166700D01*
X167700Y225800D01*
Y215800D02*
X168700Y216800D01*
X169700D01*
X168700Y217800D01*
X169700Y218800D01*
X168700D01*
X167700Y219800D01*
X166700Y218800D01*
X165700D01*
X166700Y217800D01*
X165700Y216800D01*
X166700D01*
X167700Y215800D01*
Y205800D02*
X168700Y206800D01*
X169700D01*
X168700Y207800D01*
X169700Y208800D01*
X168700D01*
X167700Y209800D01*
X166700Y208800D01*
X165700D01*
X166700Y207800D01*
X165700Y206800D01*
X166700D01*
X167700Y205800D01*
Y195800D02*
X168700Y196800D01*
X169700D01*
X168700Y197800D01*
X169700Y198800D01*
X168700D01*
X167700Y199800D01*
X166700Y198800D01*
X165700D01*
X166700Y197800D01*
X165700Y196800D01*
X166700D01*
X167700Y195800D01*
Y185800D02*
X168700Y186800D01*
X169700D01*
X168700Y187800D01*
X169700Y188800D01*
X168700D01*
X167700Y189800D01*
X166700Y188800D01*
X165700D01*
X166700Y187800D01*
X165700Y186800D01*
X166700D01*
X167700Y185800D01*
Y175800D02*
X168700Y176800D01*
X169700D01*
X168700Y177800D01*
X169700Y178800D01*
X168700D01*
X167700Y179800D01*
X166700Y178800D01*
X165700D01*
X166700Y177800D01*
X165700Y176800D01*
X166700D01*
X167700Y175800D01*
X177700Y245800D02*
X178700Y246800D01*
X179700D01*
X178700Y247800D01*
X179700Y248800D01*
X178700D01*
X177700Y249800D01*
X176700Y248800D01*
X175700D01*
X176700Y247800D01*
X175700Y246800D01*
X176700D01*
X177700Y245800D01*
Y235800D02*
X178700Y236800D01*
X179700D01*
X178700Y237800D01*
X179700Y238800D01*
X178700D01*
X177700Y239800D01*
X176700Y238800D01*
X175700D01*
X176700Y237800D01*
X175700Y236800D01*
X176700D01*
X177700Y235800D01*
Y185800D02*
X178700Y186800D01*
X179700D01*
X178700Y187800D01*
X179700Y188800D01*
X178700D01*
X177700Y189800D01*
X176700Y188800D01*
X175700D01*
X176700Y187800D01*
X175700Y186800D01*
X176700D01*
X177700Y185800D01*
Y175800D02*
X178700Y176800D01*
X179700D01*
X178700Y177800D01*
X179700Y178800D01*
X178700D01*
X177700Y179800D01*
X176700Y178800D01*
X175700D01*
X176700Y177800D01*
X175700Y176800D01*
X176700D01*
X177700Y175800D01*
X187700Y245800D02*
X188700Y246800D01*
X189700D01*
X188700Y247800D01*
X189700Y248800D01*
X188700D01*
X187700Y249800D01*
X186700Y248800D01*
X185700D01*
X186700Y247800D01*
X185700Y246800D01*
X186700D01*
X187700Y245800D01*
Y235800D02*
X188700Y236800D01*
X189700D01*
X188700Y237800D01*
X189700Y238800D01*
X188700D01*
X187700Y239800D01*
X186700Y238800D01*
X185700D01*
X186700Y237800D01*
X185700Y236800D01*
X186700D01*
X187700Y235800D01*
Y185800D02*
X188700Y186800D01*
X189700D01*
X188700Y187800D01*
X189700Y188800D01*
X188700D01*
X187700Y189800D01*
X186700Y188800D01*
X185700D01*
X186700Y187800D01*
X185700Y186800D01*
X186700D01*
X187700Y185800D01*
X197700Y245800D02*
X198700Y246800D01*
X199700D01*
X198700Y247800D01*
X199700Y248800D01*
X198700D01*
X197700Y249800D01*
X196700Y248800D01*
X195700D01*
X196700Y247800D01*
X195700Y246800D01*
X196700D01*
X197700Y245800D01*
Y235800D02*
X198700Y236800D01*
X199700D01*
X198700Y237800D01*
X199700Y238800D01*
X198700D01*
X197700Y239800D01*
X196700Y238800D01*
X195700D01*
X196700Y237800D01*
X195700Y236800D01*
X196700D01*
X197700Y235800D01*
Y185800D02*
X198700Y186800D01*
X199700D01*
X198700Y187800D01*
X199700Y188800D01*
X198700D01*
X197700Y189800D01*
X196700Y188800D01*
X195700D01*
X196700Y187800D01*
X195700Y186800D01*
X196700D01*
X197700Y185800D01*
Y175800D02*
X198700Y176800D01*
X199700D01*
X198700Y177800D01*
X199700Y178800D01*
X198700D01*
X197700Y179800D01*
X196700Y178800D01*
X195700D01*
X196700Y177800D01*
X195700Y176800D01*
X196700D01*
X197700Y175800D01*
X207700Y245800D02*
X208700Y246800D01*
X209700D01*
X208700Y247800D01*
X209700Y248800D01*
X208700D01*
X207700Y249800D01*
X206700Y248800D01*
X205700D01*
X206700Y247800D01*
X205700Y246800D01*
X206700D01*
X207700Y245800D01*
Y185800D02*
X208700Y186800D01*
X209700D01*
X208700Y187800D01*
X209700Y188800D01*
X208700D01*
X207700Y189800D01*
X206700Y188800D01*
X205700D01*
X206700Y187800D01*
X205700Y186800D01*
X206700D01*
X207700Y185800D01*
Y175800D02*
X208700Y176800D01*
X209700D01*
X208700Y177800D01*
X209700Y178800D01*
X208700D01*
X207700Y179800D01*
X206700Y178800D01*
X205700D01*
X206700Y177800D01*
X205700Y176800D01*
X206700D01*
X207700Y175800D01*
X217700Y245800D02*
X218700Y246800D01*
X219700D01*
X218700Y247800D01*
X219700Y248800D01*
X218700D01*
X217700Y249800D01*
X216700Y248800D01*
X215700D01*
X216700Y247800D01*
X215700Y246800D01*
X216700D01*
X217700Y245800D01*
Y235800D02*
X218700Y236800D01*
X219700D01*
X218700Y237800D01*
X219700Y238800D01*
X218700D01*
X217700Y239800D01*
X216700Y238800D01*
X215700D01*
X216700Y237800D01*
X215700Y236800D01*
X216700D01*
X217700Y235800D01*
Y225800D02*
X218700Y226800D01*
X219700D01*
X218700Y227800D01*
X219700Y228800D01*
X218700D01*
X217700Y229800D01*
X216700Y228800D01*
X215700D01*
X216700Y227800D01*
X215700Y226800D01*
X216700D01*
X217700Y225800D01*
Y215800D02*
X218700Y216800D01*
X219700D01*
X218700Y217800D01*
X219700Y218800D01*
X218700D01*
X217700Y219800D01*
X216700Y218800D01*
X215700D01*
X216700Y217800D01*
X215700Y216800D01*
X216700D01*
X217700Y215800D01*
Y205800D02*
X218700Y206800D01*
X219700D01*
X218700Y207800D01*
X219700Y208800D01*
X218700D01*
X217700Y209800D01*
X216700Y208800D01*
X215700D01*
X216700Y207800D01*
X215700Y206800D01*
X216700D01*
X217700Y205800D01*
Y195800D02*
X218700Y196800D01*
X219700D01*
X218700Y197800D01*
X219700Y198800D01*
X218700D01*
X217700Y199800D01*
X216700Y198800D01*
X215700D01*
X216700Y197800D01*
X215700Y196800D01*
X216700D01*
X217700Y195800D01*
Y185800D02*
X218700Y186800D01*
X219700D01*
X218700Y187800D01*
X219700Y188800D01*
X218700D01*
X217700Y189800D01*
X216700Y188800D01*
X215700D01*
X216700Y187800D01*
X215700Y186800D01*
X216700D01*
X217700Y185800D01*
Y175800D02*
X218700Y176800D01*
X219700D01*
X218700Y177800D01*
X219700Y178800D01*
X218700D01*
X217700Y179800D01*
X216700Y178800D01*
X215700D01*
X216700Y177800D01*
X215700Y176800D01*
X216700D01*
X217700Y175800D01*
X227700Y235800D02*
X228700Y236800D01*
X229700D01*
X228700Y237800D01*
X229700Y238800D01*
X228700D01*
X227700Y239800D01*
X226700Y238800D01*
X225700D01*
X226700Y237800D01*
X225700Y236800D01*
X226700D01*
X227700Y235800D01*
Y225800D02*
X228700Y226800D01*
X229700D01*
X228700Y227800D01*
X229700Y228800D01*
X228700D01*
X227700Y229800D01*
X226700Y228800D01*
X225700D01*
X226700Y227800D01*
X225700Y226800D01*
X226700D01*
X227700Y225800D01*
Y215800D02*
X228700Y216800D01*
X229700D01*
X228700Y217800D01*
X229700Y218800D01*
X228700D01*
X227700Y219800D01*
X226700Y218800D01*
X225700D01*
X226700Y217800D01*
X225700Y216800D01*
X226700D01*
X227700Y215800D01*
Y205800D02*
X228700Y206800D01*
X229700D01*
X228700Y207800D01*
X229700Y208800D01*
X228700D01*
X227700Y209800D01*
X226700Y208800D01*
X225700D01*
X226700Y207800D01*
X225700Y206800D01*
X226700D01*
X227700Y205800D01*
Y195800D02*
X228700Y196800D01*
X229700D01*
X228700Y197800D01*
X229700Y198800D01*
X228700D01*
X227700Y199800D01*
X226700Y198800D01*
X225700D01*
X226700Y197800D01*
X225700Y196800D01*
X226700D01*
X227700Y195800D01*
Y185800D02*
X228700Y186800D01*
X229700D01*
X228700Y187800D01*
X229700Y188800D01*
X228700D01*
X227700Y189800D01*
X226700Y188800D01*
X225700D01*
X226700Y187800D01*
X225700Y186800D01*
X226700D01*
X227700Y185800D01*
X187700Y175800D02*
X188700Y176800D01*
X189700D01*
X188700Y177800D01*
X189700Y178800D01*
X188700D01*
X187700Y179800D01*
X186700Y178800D01*
X185700D01*
X186700Y177800D01*
X185700Y176800D01*
X186700D01*
X187700Y175800D01*
X207700Y235800D02*
X208700Y236800D01*
X209700D01*
X208700Y237800D01*
X209700Y238800D01*
X208700D01*
X207700Y239800D01*
X206700Y238800D01*
X205700D01*
X206700Y237800D01*
X205700Y236800D01*
X206700D01*
X207700Y235800D01*
X268200Y122800D02*
X269200Y124800D01*
X268200Y126800D01*
X270200Y125800D01*
X272200Y126800D01*
X271200Y124800D01*
X272200Y122800D01*
X270200Y123800D01*
X268200Y122800D01*
X328400Y61400D02*
Y60400D01*
X330400D01*
Y61400D01*
X331400D01*
Y63400D01*
X330400D01*
Y64400D01*
X328400D01*
Y63400D01*
X327400D01*
Y61400D01*
X328400D01*
X310100Y115800D02*
X311100Y117800D01*
X310100Y119800D01*
X312100Y118800D01*
X314100Y119800D01*
X313100Y117800D01*
X314100Y115800D01*
X312100Y116800D01*
X310100Y115800D01*
X355300Y199600D02*
Y198600D01*
X357300D01*
Y199600D01*
X358300D01*
Y201600D01*
X357300D01*
Y202600D01*
X355300D01*
Y201600D01*
X354300D01*
Y199600D01*
X355300D01*
X348900Y99800D02*
Y98800D01*
X350900D01*
Y99800D01*
X351900D01*
Y101800D01*
X350900D01*
Y102800D01*
X348900D01*
Y101800D01*
X347900D01*
Y99800D01*
X348900D01*
X256600Y62700D02*
Y61700D01*
X258600D01*
Y62700D01*
X259600D01*
Y64700D01*
X258600D01*
Y65700D01*
X256600D01*
Y64700D01*
X255600D01*
Y62700D01*
X256600D01*
X360400Y204700D02*
Y203700D01*
X362400D01*
Y204700D01*
X363400D01*
Y206700D01*
X362400D01*
Y207700D01*
X360400D01*
Y206700D01*
X359400D01*
Y204700D01*
X360400D01*
X243100Y201000D02*
Y200000D01*
X245100D01*
Y201000D01*
X246100D01*
Y203000D01*
X245100D01*
Y204000D01*
X243100D01*
Y203000D01*
X242100D01*
Y201000D01*
X243100D01*
X379700Y61800D02*
Y60800D01*
X381700D01*
Y61800D01*
X382700D01*
Y63800D01*
X381700D01*
Y64800D01*
X379700D01*
Y63800D01*
X378700D01*
Y61800D01*
X379700D01*
X306500Y35600D02*
Y34600D01*
X308500D01*
Y35600D01*
X309500D01*
Y37600D01*
X308500D01*
Y38600D01*
X306500D01*
Y37600D01*
X305500D01*
Y35600D01*
X306500D01*
X286000Y194100D02*
Y193100D01*
X288000D01*
Y194100D01*
X289000D01*
Y196100D01*
X288000D01*
Y197100D01*
X286000D01*
Y196100D01*
X285000D01*
Y194100D01*
X286000D01*
X233500Y201800D02*
Y200800D01*
X235500D01*
Y201800D01*
X236500D01*
Y203800D01*
X235500D01*
Y204800D01*
X233500D01*
Y203800D01*
X232500D01*
Y201800D01*
X233500D01*
X272400Y55200D02*
Y54200D01*
X274400D01*
Y55200D01*
X275400D01*
Y57200D01*
X274400D01*
Y58200D01*
X272400D01*
Y57200D01*
X271400D01*
Y55200D01*
X272400D01*
X327400Y239300D02*
Y238300D01*
X329400D01*
Y239300D01*
X330400D01*
Y241300D01*
X329400D01*
Y242300D01*
X327400D01*
Y241300D01*
X326400D01*
Y239300D01*
X327400D01*
X328200Y110800D02*
Y109800D01*
X330200D01*
Y110800D01*
X331200D01*
Y112800D01*
X330200D01*
Y113800D01*
X328200D01*
Y112800D01*
X327200D01*
Y110800D01*
X328200D01*
X105500Y269500D02*
Y268500D01*
X107500D01*
Y269500D01*
X108500D01*
Y271500D01*
X107500D01*
Y272500D01*
X105500D01*
Y271500D01*
X104500D01*
Y269500D01*
X105500D01*
X184700Y230600D02*
Y229600D01*
X186700D01*
Y230600D01*
X187700D01*
Y232600D01*
X186700D01*
Y233600D01*
X184700D01*
Y232600D01*
X183700D01*
Y230600D01*
X184700D01*
X155900Y132100D02*
Y131100D01*
X157900D01*
Y132100D01*
X158900D01*
Y134100D01*
X157900D01*
Y135100D01*
X155900D01*
Y134100D01*
X154900D01*
Y132100D01*
X155900D01*
X338500Y67500D02*
Y66500D01*
X340500D01*
Y67500D01*
X341500D01*
Y69500D01*
X340500D01*
Y70500D01*
X338500D01*
Y69500D01*
X337500D01*
Y67500D01*
X338500D01*
X343700Y83100D02*
Y82100D01*
X345700D01*
Y83100D01*
X346700D01*
Y85100D01*
X345700D01*
Y86100D01*
X343700D01*
Y85100D01*
X342700D01*
Y83100D01*
X343700D01*
X271300Y45400D02*
Y44400D01*
X273300D01*
Y45400D01*
X274300D01*
Y47400D01*
X273300D01*
Y48400D01*
X271300D01*
Y47400D01*
X270300D01*
Y45400D01*
X271300D01*
X296300Y39800D02*
Y38800D01*
X298300D01*
Y39800D01*
X299300D01*
Y41800D01*
X298300D01*
Y42800D01*
X296300D01*
Y41800D01*
X295300D01*
Y39800D01*
X296300D01*
X535100Y404200D02*
X536900Y407800D01*
X535100Y411400D01*
X538700Y409600D01*
X542300Y411400D01*
X540500Y407800D01*
X542300Y404200D01*
X538700Y406000D01*
X535100Y404200D01*
X538700Y386200D02*
X540500Y388000D01*
X542300D01*
X540500Y389800D01*
X542300Y391600D01*
X540500D01*
X538700Y393400D01*
X536900Y391600D01*
X535100D01*
X536900Y389800D01*
X535100Y388000D01*
X536900D01*
X538700Y386200D01*
X536900Y370000D02*
Y368200D01*
X540500D01*
Y370000D01*
X542300D01*
Y373600D01*
X540500D01*
Y375400D01*
X536900D01*
Y373600D01*
X535100D01*
Y370000D01*
X536900D01*
X535100Y350200D02*
Y357400D01*
X542300D01*
Y350200D01*
X535100D01*
X538700Y332200D02*
X535100Y339400D01*
X542300D01*
X538700Y332200D01*
D52*
X314400Y76500D02*
G03*
X314400Y76500I-2000J0D01*
G01*
X304400D02*
G03*
X304400Y76500I-2000J0D01*
G01*
X294400D02*
G03*
X294400Y76500I-2000J0D01*
G01*
X284400D02*
G03*
X284400Y76500I-2000J0D01*
G01*
X274400D02*
G03*
X274400Y76500I-2000J0D01*
G01*
X264400D02*
G03*
X264400Y76500I-2000J0D01*
G01*
X254400D02*
G03*
X254400Y76500I-2000J0D01*
G01*
X244400D02*
G03*
X244400Y76500I-2000J0D01*
G01*
X234400D02*
G03*
X234400Y76500I-2000J0D01*
G01*
X224400D02*
G03*
X224400Y76500I-2000J0D01*
G01*
X314400Y46500D02*
G03*
X314400Y46500I-2000J0D01*
G01*
X304400D02*
G03*
X304400Y46500I-2000J0D01*
G01*
X294400D02*
G03*
X294400Y46500I-2000J0D01*
G01*
X284400D02*
G03*
X284400Y46500I-2000J0D01*
G01*
X274400D02*
G03*
X274400Y46500I-2000J0D01*
G01*
X264400D02*
G03*
X264400Y46500I-2000J0D01*
G01*
X254400D02*
G03*
X254400Y46500I-2000J0D01*
G01*
X244400D02*
G03*
X244400Y46500I-2000J0D01*
G01*
X234400D02*
G03*
X234400Y46500I-2000J0D01*
G01*
X224400D02*
G03*
X224400Y46500I-2000J0D01*
G01*
X72200Y235500D02*
G03*
X72200Y235500I-2000J0D01*
G01*
Y225500D02*
G03*
X72200Y225500I-2000J0D01*
G01*
Y215500D02*
G03*
X72200Y215500I-2000J0D01*
G01*
Y205500D02*
G03*
X72200Y205500I-2000J0D01*
G01*
Y195500D02*
G03*
X72200Y195500I-2000J0D01*
G01*
Y185500D02*
G03*
X72200Y185500I-2000J0D01*
G01*
Y175500D02*
G03*
X72200Y175500I-2000J0D01*
G01*
X102200Y235500D02*
G03*
X102200Y235500I-2000J0D01*
G01*
Y225500D02*
G03*
X102200Y225500I-2000J0D01*
G01*
Y215500D02*
G03*
X102200Y215500I-2000J0D01*
G01*
Y205500D02*
G03*
X102200Y205500I-2000J0D01*
G01*
Y195500D02*
G03*
X102200Y195500I-2000J0D01*
G01*
Y185500D02*
G03*
X102200Y185500I-2000J0D01*
G01*
Y175500D02*
G03*
X102200Y175500I-2000J0D01*
G01*
X58600D02*
G03*
X58600Y175500I-2000J0D01*
G01*
Y185500D02*
G03*
X58600Y185500I-2000J0D01*
G01*
Y195500D02*
G03*
X58600Y195500I-2000J0D01*
G01*
Y205500D02*
G03*
X58600Y205500I-2000J0D01*
G01*
Y215500D02*
G03*
X58600Y215500I-2000J0D01*
G01*
Y225500D02*
G03*
X58600Y225500I-2000J0D01*
G01*
Y235500D02*
G03*
X58600Y235500I-2000J0D01*
G01*
X28600Y175500D02*
G03*
X28600Y175500I-2000J0D01*
G01*
Y185500D02*
G03*
X28600Y185500I-2000J0D01*
G01*
Y195500D02*
G03*
X28600Y195500I-2000J0D01*
G01*
Y205500D02*
G03*
X28600Y205500I-2000J0D01*
G01*
Y215500D02*
G03*
X28600Y215500I-2000J0D01*
G01*
Y225500D02*
G03*
X28600Y225500I-2000J0D01*
G01*
Y235500D02*
G03*
X28600Y235500I-2000J0D01*
G01*
X170100Y274200D02*
G03*
X170100Y274200I-2000J0D01*
G01*
X180100D02*
G03*
X180100Y274200I-2000J0D01*
G01*
X190100D02*
G03*
X190100Y274200I-2000J0D01*
G01*
X322700Y275500D02*
G03*
X322700Y275500I-2000J0D01*
G01*
Y265500D02*
G03*
X322700Y265500I-2000J0D01*
G01*
Y255500D02*
G03*
X322700Y255500I-2000J0D01*
G01*
Y245500D02*
G03*
X322700Y245500I-2000J0D01*
G01*
Y235500D02*
G03*
X322700Y235500I-2000J0D01*
G01*
Y225500D02*
G03*
X322700Y225500I-2000J0D01*
G01*
Y215500D02*
G03*
X322700Y215500I-2000J0D01*
G01*
Y205500D02*
G03*
X322700Y205500I-2000J0D01*
G01*
Y195500D02*
G03*
X322700Y195500I-2000J0D01*
G01*
Y185500D02*
G03*
X322700Y185500I-2000J0D01*
G01*
Y175500D02*
G03*
X322700Y175500I-2000J0D01*
G01*
Y165500D02*
G03*
X322700Y165500I-2000J0D01*
G01*
Y155500D02*
G03*
X322700Y155500I-2000J0D01*
G01*
Y145500D02*
G03*
X322700Y145500I-2000J0D01*
G01*
Y135500D02*
G03*
X322700Y135500I-2000J0D01*
G01*
Y125500D02*
G03*
X322700Y125500I-2000J0D01*
G01*
Y115500D02*
G03*
X322700Y115500I-2000J0D01*
G01*
Y105500D02*
G03*
X322700Y105500I-2000J0D01*
G01*
Y95500D02*
G03*
X322700Y95500I-2000J0D01*
G01*
Y85500D02*
G03*
X322700Y85500I-2000J0D01*
G01*
X382700Y275500D02*
G03*
X382700Y275500I-2000J0D01*
G01*
Y265500D02*
G03*
X382700Y265500I-2000J0D01*
G01*
Y255500D02*
G03*
X382700Y255500I-2000J0D01*
G01*
Y245500D02*
G03*
X382700Y245500I-2000J0D01*
G01*
Y235500D02*
G03*
X382700Y235500I-2000J0D01*
G01*
Y225500D02*
G03*
X382700Y225500I-2000J0D01*
G01*
Y215500D02*
G03*
X382700Y215500I-2000J0D01*
G01*
Y205500D02*
G03*
X382700Y205500I-2000J0D01*
G01*
Y195500D02*
G03*
X382700Y195500I-2000J0D01*
G01*
Y185500D02*
G03*
X382700Y185500I-2000J0D01*
G01*
Y175500D02*
G03*
X382700Y175500I-2000J0D01*
G01*
Y165500D02*
G03*
X382700Y165500I-2000J0D01*
G01*
Y155500D02*
G03*
X382700Y155500I-2000J0D01*
G01*
Y145500D02*
G03*
X382700Y145500I-2000J0D01*
G01*
Y135500D02*
G03*
X382700Y135500I-2000J0D01*
G01*
Y125500D02*
G03*
X382700Y125500I-2000J0D01*
G01*
Y115500D02*
G03*
X382700Y115500I-2000J0D01*
G01*
Y105500D02*
G03*
X382700Y105500I-2000J0D01*
G01*
Y95500D02*
G03*
X382700Y95500I-2000J0D01*
G01*
Y85500D02*
G03*
X382700Y85500I-2000J0D01*
G01*
X134000Y110900D02*
G03*
X134000Y110900I-2000J0D01*
G01*
X144000D02*
G03*
X144000Y110900I-2000J0D01*
G01*
X154000D02*
G03*
X154000Y110900I-2000J0D01*
G01*
X164000D02*
G03*
X164000Y110900I-2000J0D01*
G01*
X174000D02*
G03*
X174000Y110900I-2000J0D01*
G01*
X184000D02*
G03*
X184000Y110900I-2000J0D01*
G01*
X194000D02*
G03*
X194000Y110900I-2000J0D01*
G01*
X204000D02*
G03*
X204000Y110900I-2000J0D01*
G01*
X214000D02*
G03*
X214000Y110900I-2000J0D01*
G01*
X224000D02*
G03*
X224000Y110900I-2000J0D01*
G01*
X134000Y140900D02*
G03*
X134000Y140900I-2000J0D01*
G01*
X144000D02*
G03*
X144000Y140900I-2000J0D01*
G01*
X154000D02*
G03*
X154000Y140900I-2000J0D01*
G01*
X164000D02*
G03*
X164000Y140900I-2000J0D01*
G01*
X174000D02*
G03*
X174000Y140900I-2000J0D01*
G01*
X184000D02*
G03*
X184000Y140900I-2000J0D01*
G01*
X194000D02*
G03*
X194000Y140900I-2000J0D01*
G01*
X204000D02*
G03*
X204000Y140900I-2000J0D01*
G01*
X214000D02*
G03*
X214000Y140900I-2000J0D01*
G01*
X224000D02*
G03*
X224000Y140900I-2000J0D01*
G01*
X270800Y225500D02*
G03*
X270800Y225500I-2000J0D01*
G01*
Y215500D02*
G03*
X270800Y215500I-2000J0D01*
G01*
Y205500D02*
G03*
X270800Y205500I-2000J0D01*
G01*
Y195500D02*
G03*
X270800Y195500I-2000J0D01*
G01*
Y185500D02*
G03*
X270800Y185500I-2000J0D01*
G01*
Y175500D02*
G03*
X270800Y175500I-2000J0D01*
G01*
Y165500D02*
G03*
X270800Y165500I-2000J0D01*
G01*
Y155500D02*
G03*
X270800Y155500I-2000J0D01*
G01*
Y145500D02*
G03*
X270800Y145500I-2000J0D01*
G01*
Y135500D02*
G03*
X270800Y135500I-2000J0D01*
G01*
X300800Y225500D02*
G03*
X300800Y225500I-2000J0D01*
G01*
Y215500D02*
G03*
X300800Y215500I-2000J0D01*
G01*
Y205500D02*
G03*
X300800Y205500I-2000J0D01*
G01*
Y195500D02*
G03*
X300800Y195500I-2000J0D01*
G01*
Y185500D02*
G03*
X300800Y185500I-2000J0D01*
G01*
Y175500D02*
G03*
X300800Y175500I-2000J0D01*
G01*
Y165500D02*
G03*
X300800Y165500I-2000J0D01*
G01*
Y155500D02*
G03*
X300800Y155500I-2000J0D01*
G01*
Y145500D02*
G03*
X300800Y145500I-2000J0D01*
G01*
Y135500D02*
G03*
X300800Y135500I-2000J0D01*
G01*
X118400Y262400D02*
G03*
X118400Y262400I-2000J0D01*
G01*
X123400D02*
G03*
X123400Y262400I-2000J0D01*
G01*
X128400D02*
G03*
X128400Y262400I-2000J0D01*
G01*
X61500Y140900D02*
G03*
X61500Y140900I-2000J0D01*
G01*
Y130900D02*
G03*
X61500Y130900I-2000J0D01*
G01*
Y120900D02*
G03*
X61500Y120900I-2000J0D01*
G01*
Y110900D02*
G03*
X61500Y110900I-2000J0D01*
G01*
Y100900D02*
G03*
X61500Y100900I-2000J0D01*
G01*
Y90900D02*
G03*
X61500Y90900I-2000J0D01*
G01*
Y80900D02*
G03*
X61500Y80900I-2000J0D01*
G01*
Y70900D02*
G03*
X61500Y70900I-2000J0D01*
G01*
Y60900D02*
G03*
X61500Y60900I-2000J0D01*
G01*
X91500Y140900D02*
G03*
X91500Y140900I-2000J0D01*
G01*
Y130900D02*
G03*
X91500Y130900I-2000J0D01*
G01*
Y120900D02*
G03*
X91500Y120900I-2000J0D01*
G01*
Y110900D02*
G03*
X91500Y110900I-2000J0D01*
G01*
Y100900D02*
G03*
X91500Y100900I-2000J0D01*
G01*
Y90900D02*
G03*
X91500Y90900I-2000J0D01*
G01*
Y80900D02*
G03*
X91500Y80900I-2000J0D01*
G01*
Y70900D02*
G03*
X91500Y70900I-2000J0D01*
G01*
Y60900D02*
G03*
X91500Y60900I-2000J0D01*
G01*
X14800Y140900D02*
G03*
X14800Y140900I-2000J0D01*
G01*
Y130900D02*
G03*
X14800Y130900I-2000J0D01*
G01*
Y120900D02*
G03*
X14800Y120900I-2000J0D01*
G01*
Y110900D02*
G03*
X14800Y110900I-2000J0D01*
G01*
Y100900D02*
G03*
X14800Y100900I-2000J0D01*
G01*
Y90900D02*
G03*
X14800Y90900I-2000J0D01*
G01*
Y80900D02*
G03*
X14800Y80900I-2000J0D01*
G01*
Y70900D02*
G03*
X14800Y70900I-2000J0D01*
G01*
Y60900D02*
G03*
X14800Y60900I-2000J0D01*
G01*
X44800Y140900D02*
G03*
X44800Y140900I-2000J0D01*
G01*
Y130900D02*
G03*
X44800Y130900I-2000J0D01*
G01*
Y120900D02*
G03*
X44800Y120900I-2000J0D01*
G01*
Y110900D02*
G03*
X44800Y110900I-2000J0D01*
G01*
Y100900D02*
G03*
X44800Y100900I-2000J0D01*
G01*
Y90900D02*
G03*
X44800Y90900I-2000J0D01*
G01*
Y80900D02*
G03*
X44800Y80900I-2000J0D01*
G01*
Y70900D02*
G03*
X44800Y70900I-2000J0D01*
G01*
Y60900D02*
G03*
X44800Y60900I-2000J0D01*
G01*
D53*
X542299Y434155D02*
X541270Y435183D01*
X539728Y435698D01*
X537671D01*
X536128Y435183D01*
X535100Y434155D01*
Y433127D01*
X535614Y432098D01*
X536128Y431584D01*
X537157Y431070D01*
X540242Y430042D01*
X541270Y429528D01*
X541784Y429013D01*
X542299Y427985D01*
Y426442D01*
X541270Y425414D01*
X539728Y424900D01*
X537671D01*
X536128Y425414D01*
X535100Y426442D01*
X545229Y432098D02*
X548314Y424900D01*
X551399Y432098D02*
X548314Y424900D01*
X547286Y422843D01*
X546258Y421815D01*
X545229Y421301D01*
X544715D01*
X553199Y432098D02*
Y424900D01*
Y430042D02*
X554741Y431584D01*
X555770Y432098D01*
X557312D01*
X558341Y431584D01*
X558855Y430042D01*
Y424900D01*
Y430042D02*
X560397Y431584D01*
X561426Y432098D01*
X562968D01*
X563997Y431584D01*
X564511Y430042D01*
Y424900D01*
X567904Y435698D02*
Y424900D01*
Y430556D02*
X568933Y431584D01*
X569961Y432098D01*
X571504D01*
X572532Y431584D01*
X573560Y430556D01*
X574075Y429013D01*
Y427985D01*
X573560Y426442D01*
X572532Y425414D01*
X571504Y424900D01*
X569961D01*
X568933Y425414D01*
X567904Y426442D01*
X578959Y432098D02*
X577931Y431584D01*
X576902Y430556D01*
X576388Y429013D01*
Y427985D01*
X576902Y426442D01*
X577931Y425414D01*
X578959Y424900D01*
X580502D01*
X581530Y425414D01*
X582558Y426442D01*
X583073Y427985D01*
Y429013D01*
X582558Y430556D01*
X581530Y431584D01*
X580502Y432098D01*
X578959D01*
X585438Y435698D02*
Y424900D01*
X600558Y435698D02*
Y424900D01*
X607756Y435698D02*
Y424900D01*
X600558Y430556D02*
X607756D01*
X611767Y435698D02*
X612281Y435183D01*
X612795Y435698D01*
X612281Y436212D01*
X611767Y435698D01*
X612281Y432098D02*
Y424900D01*
X616240Y435698D02*
Y426957D01*
X616754Y425414D01*
X617783Y424900D01*
X618811D01*
X614698Y432098D02*
X618297D01*
X636550Y433127D02*
X636036Y434155D01*
X635008Y435183D01*
X633979Y435698D01*
X631922D01*
X630894Y435183D01*
X629866Y434155D01*
X629352Y433127D01*
X628837Y431584D01*
Y429013D01*
X629352Y427471D01*
X629866Y426442D01*
X630894Y425414D01*
X631922Y424900D01*
X633979D01*
X635008Y425414D01*
X636036Y426442D01*
X636550Y427471D01*
X642155Y432098D02*
X641126Y431584D01*
X640098Y430556D01*
X639584Y429013D01*
Y427985D01*
X640098Y426442D01*
X641126Y425414D01*
X642155Y424900D01*
X643697D01*
X644726Y425414D01*
X645754Y426442D01*
X646268Y427985D01*
Y429013D01*
X645754Y430556D01*
X644726Y431584D01*
X643697Y432098D01*
X642155D01*
X648633D02*
Y426957D01*
X649147Y425414D01*
X650176Y424900D01*
X651718D01*
X652747Y425414D01*
X654289Y426957D01*
Y432098D02*
Y424900D01*
X657117Y432098D02*
Y424900D01*
Y430042D02*
X658660Y431584D01*
X659688Y432098D01*
X661231D01*
X662259Y431584D01*
X662773Y430042D01*
Y424900D01*
X667143Y435698D02*
Y426957D01*
X667658Y425414D01*
X668686Y424900D01*
X669714D01*
X665601Y432098D02*
X669200D01*
X688434Y435698D02*
Y424900D01*
X684834Y435698D02*
X692033D01*
X695889Y432098D02*
X694861Y431584D01*
X693832Y430556D01*
X693318Y429013D01*
Y427985D01*
X693832Y426442D01*
X694861Y425414D01*
X695889Y424900D01*
X697432D01*
X698460Y425414D01*
X699488Y426442D01*
X700003Y427985D01*
Y429013D01*
X699488Y430556D01*
X698460Y431584D01*
X697432Y432098D01*
X695889D01*
X704939D02*
X703910Y431584D01*
X702882Y430556D01*
X702368Y429013D01*
Y427985D01*
X702882Y426442D01*
X703910Y425414D01*
X704939Y424900D01*
X706481D01*
X707510Y425414D01*
X708538Y426442D01*
X709052Y427985D01*
Y429013D01*
X708538Y430556D01*
X707510Y431584D01*
X706481Y432098D01*
X704939D01*
X711417Y435698D02*
Y424900D01*
X729362Y434155D02*
X728334Y435183D01*
X726791Y435698D01*
X724734D01*
X723192Y435183D01*
X722164Y434155D01*
Y433127D01*
X722678Y432098D01*
X723192Y431584D01*
X724220Y431070D01*
X727305Y430042D01*
X728334Y429528D01*
X728848Y429013D01*
X729362Y427985D01*
Y426442D01*
X728334Y425414D01*
X726791Y424900D01*
X724734D01*
X723192Y425414D01*
X722164Y426442D01*
X732807Y435698D02*
X733321Y435183D01*
X733835Y435698D01*
X733321Y436212D01*
X732807Y435698D01*
X733321Y432098D02*
Y424900D01*
X741394Y432098D02*
X735738Y424900D01*
Y432098D02*
X741394D01*
X735738Y424900D02*
X741394D01*
X743656Y429013D02*
X749826D01*
Y430042D01*
X749312Y431070D01*
X748798Y431584D01*
X747769Y432098D01*
X746227D01*
X745199Y431584D01*
X744170Y430556D01*
X743656Y429013D01*
Y427985D01*
X744170Y426442D01*
X745199Y425414D01*
X746227Y424900D01*
X747769D01*
X748798Y425414D01*
X749826Y426442D01*
X825362Y430042D02*
X829989D01*
X831532Y430556D01*
X832046Y431070D01*
X832560Y432098D01*
Y433641D01*
X832046Y434669D01*
X831532Y435183D01*
X829989Y435698D01*
X825362D01*
Y424900D01*
X834977Y435698D02*
Y424900D01*
X843409Y432098D02*
Y424900D01*
Y430556D02*
X842381Y431584D01*
X841352Y432098D01*
X839810D01*
X838782Y431584D01*
X837753Y430556D01*
X837239Y429013D01*
Y427985D01*
X837753Y426442D01*
X838782Y425414D01*
X839810Y424900D01*
X841352D01*
X842381Y425414D01*
X843409Y426442D01*
X847831Y435698D02*
Y426957D01*
X848345Y425414D01*
X849374Y424900D01*
X850402D01*
X846289Y432098D02*
X849888D01*
X851945Y429013D02*
X858115D01*
Y430042D01*
X857600Y431070D01*
X857086Y431584D01*
X856058Y432098D01*
X854515D01*
X853487Y431584D01*
X852459Y430556D01*
X851945Y429013D01*
Y427985D01*
X852459Y426442D01*
X853487Y425414D01*
X854515Y424900D01*
X856058D01*
X857086Y425414D01*
X858115Y426442D01*
X866599Y435698D02*
Y424900D01*
Y430556D02*
X865570Y431584D01*
X864542Y432098D01*
X862999D01*
X861971Y431584D01*
X860943Y430556D01*
X860428Y429013D01*
Y427985D01*
X860943Y426442D01*
X861971Y425414D01*
X862999Y424900D01*
X864542D01*
X865570Y425414D01*
X866599Y426442D01*
X881719Y435698D02*
Y424900D01*
X888917Y435698D02*
Y424900D01*
X881719Y430556D02*
X888917D01*
X894470Y432098D02*
X893442Y431584D01*
X892413Y430556D01*
X891899Y429013D01*
Y427985D01*
X892413Y426442D01*
X893442Y425414D01*
X894470Y424900D01*
X896013D01*
X897041Y425414D01*
X898069Y426442D01*
X898584Y427985D01*
Y429013D01*
X898069Y430556D01*
X897041Y431584D01*
X896013Y432098D01*
X894470D01*
X900949Y435698D02*
Y424900D01*
X903211Y429013D02*
X909381D01*
Y430042D01*
X908867Y431070D01*
X908353Y431584D01*
X907324Y432098D01*
X905782D01*
X904754Y431584D01*
X903725Y430556D01*
X903211Y429013D01*
Y427985D01*
X903725Y426442D01*
X904754Y425414D01*
X905782Y424900D01*
X907324D01*
X908353Y425414D01*
X909381Y426442D01*
X923778Y435698D02*
Y424900D01*
X920179Y435698D02*
X927377D01*
X929177Y432098D02*
X932262Y424900D01*
X935347Y432098D02*
X932262Y424900D01*
X931234Y422843D01*
X930205Y421815D01*
X929177Y421301D01*
X928663D01*
X937147Y432098D02*
Y421301D01*
Y430556D02*
X938175Y431584D01*
X939203Y432098D01*
X940746D01*
X941774Y431584D01*
X942803Y430556D01*
X943317Y429013D01*
Y427985D01*
X942803Y426442D01*
X941774Y425414D01*
X940746Y424900D01*
X939203D01*
X938175Y425414D01*
X937147Y426442D01*
X945630Y429013D02*
X951801D01*
Y430042D01*
X951287Y431070D01*
X950772Y431584D01*
X949744Y432098D01*
X948201D01*
X947173Y431584D01*
X946145Y430556D01*
X945630Y429013D01*
Y427985D01*
X946145Y426442D01*
X947173Y425414D01*
X948201Y424900D01*
X949744D01*
X950772Y425414D01*
X951801Y426442D01*
X522860Y441100D02*
X966921D01*
X522860Y416800D02*
X966921D01*
X522860Y441100D02*
Y290800D01*
X966921Y441100D02*
Y290800D01*
X594438Y441100D02*
Y290800D01*
X678714Y441100D02*
Y290800D01*
X819242Y441100D02*
Y290800D01*
X875599Y441100D02*
Y290800D01*
X522860Y308800D02*
X966921D01*
X522860Y290800D02*
X966921D01*
D54*
X542300Y317800D02*
G03*
X542300Y317800I-3600J0D01*
G01*
M02*
