%FSLAX25Y25*%
%MOIN*%
G70*
G01*
G75*
G04 Layer_Physical_Order=1*
G04 Layer_Color=255*
%ADD10R,0.04331X0.05512*%
%ADD11R,0.04331X0.06693*%
%ADD12O,0.05000X0.30000*%
%ADD13C,0.02000*%
%ADD14C,0.00800*%
%ADD15C,0.00900*%
%ADD16C,0.04921*%
%ADD17R,0.04921X0.04921*%
%ADD18R,0.05906X0.05906*%
%ADD19C,0.05906*%
%ADD20C,0.05906*%
%ADD21C,0.05512*%
%ADD22R,0.05906X0.05906*%
%ADD23R,0.05906X0.05906*%
%ADD24C,0.05000*%
%ADD25O,0.03937X0.07874*%
%ADD26C,0.03000*%
D10*
X323647Y54800D02*
D03*
X329553D02*
D03*
D11*
X16415Y215500D02*
D03*
X5785D02*
D03*
X15715Y235500D02*
D03*
X5085D02*
D03*
D12*
X132100Y14300D02*
D03*
X142100D02*
D03*
X152100D02*
D03*
X162100D02*
D03*
X172100D02*
D03*
X182100D02*
D03*
X192100D02*
D03*
X202100D02*
D03*
X212100D02*
D03*
X222100D02*
D03*
X232100D02*
D03*
X242100D02*
D03*
X252100D02*
D03*
X262100D02*
D03*
X272100D02*
D03*
X282100D02*
D03*
X292100D02*
D03*
X302100D02*
D03*
X312100D02*
D03*
X322100D02*
D03*
X332100D02*
D03*
X342100D02*
D03*
X352100D02*
D03*
X362100D02*
D03*
X372100D02*
D03*
D13*
X323700Y46500D02*
Y55300D01*
Y46500D02*
X356700D01*
X356400Y46800D02*
X356647Y47047D01*
Y55300D01*
X380500Y62400D02*
X387900Y69800D01*
X320500Y275100D02*
X327000Y281600D01*
X145500Y278200D02*
X147700Y280400D01*
X145053Y262600D02*
Y277853D01*
X320700Y215500D02*
X325600D01*
X333700Y207400D01*
Y83100D02*
Y207400D01*
X356700Y46500D02*
X372100Y31100D01*
Y16400D02*
Y31100D01*
Y14300D02*
Y26400D01*
X312400Y61800D02*
Y76500D01*
Y61800D02*
X333700Y83100D01*
X193500Y193600D02*
X208600D01*
X209600Y192600D01*
X222500D01*
X227700Y197800D01*
X228400Y198500D01*
X275300Y116600D02*
Y128700D01*
X329400Y55500D02*
Y62400D01*
Y55500D02*
X329800Y55100D01*
X312400Y46500D02*
X323700D01*
X323600Y55400D02*
X323700Y55300D01*
X312400Y46500D02*
Y61800D01*
X222500Y182000D02*
Y192600D01*
Y182000D02*
X228300Y176200D01*
Y116900D02*
Y176200D01*
X329400Y62400D02*
X380500D01*
X190200Y275500D02*
X320700D01*
X222400Y76500D02*
X230000Y68900D01*
X265300D01*
X272900Y76500D01*
X268400Y135600D02*
X275300Y128700D01*
X272400Y76500D02*
Y113106D01*
X272600Y113306D01*
Y113900D01*
X275300Y116600D01*
X114800Y235500D02*
X126400Y247100D01*
Y262400D01*
Y262500D01*
X101000Y235500D02*
X114800D01*
X100900D02*
X101000Y235400D01*
X115900Y140900D02*
X132000D01*
X89300Y167500D02*
X115900Y140900D01*
X89300Y167500D02*
Y186200D01*
X70200Y205500D02*
X79200Y196500D01*
X70000Y205700D02*
X70200Y205500D01*
X71500D01*
X70200Y235500D02*
X99400D01*
Y235400D02*
X100200Y234600D01*
X56600Y235500D02*
X69400D01*
X69800Y235100D01*
X56600Y235500D02*
Y252100D01*
X5085Y188115D02*
X17500Y175700D01*
X29800D02*
X38600Y166900D01*
X62200D01*
X188100Y274200D02*
Y274700D01*
X182400Y280400D02*
X188100Y274700D01*
X147700Y280400D02*
X182400D01*
X188400Y273700D02*
X190200Y275500D01*
X387900Y69800D02*
Y281600D01*
X327000D02*
X387900D01*
X100200Y225500D02*
Y226000D01*
Y234600D01*
X99800Y226000D02*
X100200D01*
X111800D02*
X115400Y222400D01*
X168100Y260200D02*
Y274200D01*
X162100Y254200D02*
X168100Y260200D01*
X162100Y234800D02*
Y254200D01*
Y234800D02*
X164500Y232400D01*
X184900D01*
X317800Y215500D02*
X320700D01*
X307700Y225600D02*
X317800Y215500D01*
X297800Y225600D02*
X307700D01*
X115400Y201300D02*
Y222400D01*
X109800Y195700D02*
X115400Y201300D01*
X89300Y186200D02*
X99600Y196500D01*
X99300Y195700D02*
X109800D01*
X79200Y196500D02*
X99600D01*
X100200Y226000D02*
X111800D01*
X142000Y140900D02*
Y159700D01*
X165000Y182700D01*
X183300D01*
X221800Y110400D02*
X228300Y116900D01*
X183300Y182700D02*
X187700Y187100D01*
X188200Y187600D01*
X187700Y187100D02*
Y187800D01*
X193500Y193600D01*
X112300Y131600D02*
X133600D01*
X62200Y166900D02*
X70200Y174900D01*
X70300Y175000D01*
X70200Y173700D02*
X112300Y131600D01*
X70200Y173700D02*
Y174900D01*
Y175500D01*
X133600Y131600D02*
X142500Y140500D01*
X70300Y175000D02*
X70700Y175400D01*
X70300Y175000D02*
Y175900D01*
X5085Y62600D02*
Y188115D01*
Y62600D02*
X6785Y60900D01*
X14500D02*
X21200Y54200D01*
X53100D01*
X6785Y60900D02*
X12800D01*
X14500D01*
X5085Y188115D02*
Y235500D01*
X53100Y54200D02*
X60400Y61500D01*
X17500Y175700D02*
X29800D01*
D14*
X222100Y46200D02*
X222400Y46500D01*
X222100Y14300D02*
Y46200D01*
X232100D02*
X232400Y46500D01*
X232100Y14300D02*
Y46200D01*
X242100D02*
X242400Y46500D01*
X242100Y14300D02*
Y46200D01*
X252100D02*
X252400Y46500D01*
X252100Y14300D02*
Y46200D01*
X252400Y76500D02*
Y76900D01*
X320700Y105500D02*
X321200D01*
X320700Y165500D02*
X320900D01*
X320700Y145500D02*
X320800D01*
X320700Y175500D02*
X321600D01*
X320700Y185500D02*
X321700D01*
X320700Y195500D02*
X321200D01*
X321500Y205500D02*
X321600Y205600D01*
X320700Y205500D02*
X321500D01*
X320700Y215500D02*
X321400D01*
X268800Y165500D02*
X268900D01*
X197700Y187900D02*
X202600Y183000D01*
X207700Y187800D02*
X212500Y183000D01*
Y141300D02*
Y183000D01*
X211900Y140700D02*
X212500Y141300D01*
X222000Y140900D02*
Y146800D01*
X217700Y151100D02*
X222000Y146800D01*
X217700Y151100D02*
Y177800D01*
Y178100D01*
X318800Y266900D02*
X320300Y265400D01*
X177700Y247800D02*
Y274300D01*
X380700Y105500D02*
X381200D01*
X207700Y237800D02*
X212800Y242900D01*
X268900Y205700D02*
X269200D01*
X277700Y67100D02*
Y88000D01*
X262400Y51800D02*
X277700Y67100D01*
X262400Y45900D02*
Y46500D01*
Y51800D01*
X197700Y247800D02*
X198000D01*
X202000Y140900D02*
Y143300D01*
X207800Y149100D01*
Y178000D01*
X192000Y140900D02*
Y142300D01*
X202600Y152900D01*
Y183000D01*
X182000Y140900D02*
Y141500D01*
X198100Y157600D01*
Y178100D01*
X172000Y140900D02*
Y144100D01*
X187700Y159800D01*
Y178100D01*
X162000Y140900D02*
Y144200D01*
X177700Y159900D01*
Y177700D01*
X167700Y197800D02*
X168200D01*
X302100Y14300D02*
Y28400D01*
X212100Y14300D02*
Y75000D01*
X202100Y14300D02*
Y68900D01*
X232400Y76500D02*
X265700Y109800D01*
Y120000D01*
X270200Y124500D01*
X212100Y75000D02*
X220400Y83300D01*
X202100Y68900D02*
X218500Y85300D01*
X312100Y94500D02*
Y117800D01*
X212800Y242900D02*
X222400D01*
X225400Y245900D02*
X320200D01*
Y245800D02*
X321200D01*
X292100Y14300D02*
Y33700D01*
X222400Y242900D02*
X225400Y245900D01*
X198000Y247800D02*
X205600Y255400D01*
X320500D01*
X320600Y255500D01*
X187700Y237800D02*
X192300Y242400D01*
Y249500D01*
X257500Y40600D02*
X262400Y35700D01*
X361400Y205700D02*
X362800Y204300D01*
X363300D01*
X258300Y195500D02*
X258400Y195600D01*
X227400Y218100D02*
X228900D01*
X231200Y215800D01*
X269200D01*
X152000Y140900D02*
Y162500D01*
X167600Y178100D01*
X286853Y38947D02*
X292100Y33700D01*
X219853Y249953D02*
X376547D01*
X380700Y245800D01*
X217700Y247800D02*
X219853Y249953D01*
X348300Y275500D02*
X380700D01*
X343200Y270400D02*
X348300Y275500D01*
X381000Y275400D02*
Y275800D01*
X258350Y195650D02*
X268550Y205850D01*
X268700Y206000D01*
X268550Y205850D02*
X268700Y205700D01*
X227700Y207800D02*
X228300Y207200D01*
X267200D01*
X268550Y205850D01*
X220500Y83200D02*
X235000D01*
X218500Y85300D02*
X233600D01*
X268000Y145300D02*
X268900D01*
X268500Y155500D02*
X268700D01*
X268500Y165500D02*
X268800D01*
X267800Y175500D02*
X268800D01*
X235000Y83200D02*
X262900Y111100D01*
X233600Y85300D02*
X260900Y112600D01*
X262900Y111100D02*
Y140200D01*
X268000Y145300D01*
X260900Y112600D02*
Y147900D01*
X268500Y155500D01*
X258900Y114200D02*
Y155900D01*
X268500Y165500D01*
X229400Y92200D02*
X254200Y117000D01*
X227500Y98100D02*
X249500Y120100D01*
Y158800D01*
X258300Y167600D01*
Y195500D01*
X251700Y118400D02*
Y158172D01*
X260300Y166772D01*
X254200Y117000D02*
Y157843D01*
X262300Y165943D01*
X256500Y115100D02*
Y157315D01*
X264300Y165115D01*
Y172000D01*
X267800Y175500D01*
X268600Y195500D02*
X268700D01*
X142100Y14300D02*
Y31300D01*
X377400Y95400D02*
X380700D01*
X361200Y104300D02*
X380000Y85500D01*
X380700D01*
X320200Y225600D02*
X320700D01*
X321000D01*
X227700Y237800D02*
X228100D01*
X214700Y270400D02*
X217000D01*
X343200D01*
X167700Y237800D02*
X169900D01*
X174800Y242700D01*
X180900D01*
X207700Y246800D02*
Y247800D01*
X202900Y242000D02*
X207700Y246800D01*
X202900Y236800D02*
Y242000D01*
Y236800D02*
X205800Y233900D01*
X319600Y235500D02*
X320700D01*
X311100Y235900D02*
X320500D01*
X217700Y227800D02*
X221800Y231900D01*
X308800Y238200D02*
X311100Y235900D01*
X342100Y14300D02*
Y33300D01*
X338600Y36800D02*
X342100Y33300D01*
X307300Y36800D02*
X338600D01*
X302100Y14300D02*
Y29200D01*
X297200Y34100D02*
X302100Y29200D01*
X302400Y46500D02*
Y47000D01*
X307400Y52000D02*
Y207300D01*
X298500Y215800D02*
X299300Y216600D01*
X302400Y47000D02*
X307400Y52000D01*
X286853Y38947D02*
Y56553D01*
X297300Y67000D02*
Y98600D01*
X304400Y105700D01*
Y197300D01*
X300800Y200900D02*
X304400Y197300D01*
X167600Y217800D02*
X167700D01*
X286853Y56553D02*
X297300Y67000D01*
X282100Y14300D02*
Y36900D01*
X277600Y41400D02*
X282100Y36900D01*
X277600Y41400D02*
Y56500D01*
X288100Y67000D01*
X287000Y195100D02*
X288100Y194000D01*
X162400Y202800D02*
X234500D01*
X157700Y207500D02*
X162400Y202800D01*
X288100Y67000D02*
Y194000D01*
X272100Y14300D02*
Y37200D01*
X267600Y41700D02*
X272100Y37200D01*
X267600Y41700D02*
Y50400D01*
X273400Y56200D01*
X344500Y221200D02*
Y221800D01*
Y221200D02*
Y224200D01*
X328400Y240300D02*
X344500Y224200D01*
X329200Y111800D02*
Y206500D01*
X324900Y210800D02*
X329200Y206500D01*
X314000Y210800D02*
X324900D01*
X304200Y220600D02*
X314000Y210800D01*
X164000Y224100D02*
X232200D01*
X157700Y217800D02*
X164000Y224100D01*
X198900Y270400D02*
X217000D01*
X187700Y247800D02*
Y251500D01*
X203100Y266900D01*
X318800D01*
X183200Y254700D02*
X198900Y270400D01*
X180900Y242700D02*
X183300Y245100D01*
Y254900D01*
X192300Y249500D02*
X203500Y260700D01*
X382300D01*
X384900Y258100D01*
X36200Y270500D02*
X106500D01*
X25600Y259900D02*
X36200Y270500D01*
X25600Y253800D02*
Y259900D01*
X26600Y205500D02*
X45300D01*
X50700Y210900D01*
X15715Y235500D02*
X25800D01*
X16415Y215500D02*
X26400D01*
X26600Y196000D02*
Y205500D01*
Y196000D02*
X26900Y195700D01*
X115800Y278000D02*
X116400Y277400D01*
X105700Y262400D02*
X115900D01*
X116400D02*
Y277400D01*
X75700Y262400D02*
X83200Y254900D01*
X120900D01*
X121500Y255500D01*
Y262500D01*
X50700Y210900D02*
X60100D01*
X81900D02*
X87400Y205400D01*
X60100Y210900D02*
X81900D01*
X87400Y205400D02*
X101200D01*
X238700Y238100D02*
X238900Y238200D01*
X308800D01*
X227700Y237800D02*
X231900D01*
X236500Y242400D01*
X315400D01*
X317300Y240500D01*
X322600D01*
X205800Y233900D02*
X234600D01*
X238900Y238200D01*
X26600Y235500D02*
X36200D01*
X41600Y230100D01*
X77500D01*
X87700Y219900D01*
X106700D01*
X100200Y185500D02*
X119100D01*
X151300Y217700D01*
Y221300D01*
X157700Y227700D01*
X100200Y175500D02*
X113300D01*
X151200Y213400D01*
X272400Y209700D02*
X281800Y200300D01*
X232900Y211300D02*
X234400Y209800D01*
X217400Y208000D02*
X217900D01*
X217700Y207800D02*
X217900Y208000D01*
X221200Y211300D01*
X234400Y209700D02*
X272400D01*
X221200Y211300D02*
X232900D01*
X239900Y235900D02*
X305800D01*
X235900Y231900D02*
X239900Y235900D01*
X221800Y231900D02*
X235900D01*
X316100Y225600D02*
X320700D01*
X305800Y235900D02*
X316100Y225600D01*
X232200Y224100D02*
X241700Y233600D01*
X281700D01*
X294700Y220600D01*
X304200D01*
X151200Y213400D02*
X161200D01*
X163000Y215200D01*
Y219700D01*
X165400Y222100D01*
X256200D01*
X258100Y220200D01*
X286100D01*
X291100Y215200D01*
X299100Y215600D02*
X307400Y207300D01*
X291100Y215200D02*
X299200D01*
X263100Y213100D02*
X264753Y211447D01*
X277153D01*
X262300Y178700D02*
X268800Y185200D01*
X262300Y165943D02*
Y178700D01*
X260300Y166772D02*
Y187600D01*
X268500Y195800D01*
X268400Y195500D02*
X269000Y196100D01*
X26600Y215500D02*
X40000D01*
X45300Y220800D01*
X76100D01*
X85500Y211400D01*
X105700D01*
X106000Y211700D01*
X132000Y110900D02*
X154000Y132900D01*
X156700D01*
X156900Y133100D01*
X312100Y94500D02*
X321000Y85600D01*
X232000Y87300D02*
X258900Y114200D01*
X231300Y89900D02*
X256500Y115100D01*
X228500Y95200D02*
X251700Y118400D01*
X142100Y31300D02*
Y37800D01*
X204600Y100300D01*
X225900D01*
X152100Y14300D02*
Y42500D01*
X207700Y98100D01*
X227500D01*
X162100Y14300D02*
Y47000D01*
X210300Y95200D01*
X228500D01*
X219600Y92200D02*
X229400D01*
X171900Y52100D02*
X212000Y92200D01*
X171900Y45200D02*
Y52100D01*
X172100Y14300D02*
Y45200D01*
X212000Y92200D02*
X219600D01*
X200200Y75100D02*
X215000Y89900D01*
X231300D01*
X181900Y24100D02*
Y56900D01*
X200100Y75100D01*
X200200D01*
X192100Y14300D02*
Y63000D01*
X216400Y87300D01*
X232000D01*
X356300Y200600D02*
X361200Y195700D01*
Y104300D02*
Y195700D01*
X277153Y211447D02*
X287700Y200900D01*
X300800D01*
X349900Y100800D02*
Y203100D01*
X357000Y210200D01*
X257500Y40600D02*
Y63700D01*
X262400Y14300D02*
Y35700D01*
X357000Y210200D02*
X383300D01*
X384900Y211800D01*
Y211700D02*
Y211800D01*
Y258100D01*
X369500Y103300D02*
X377400Y95400D01*
X369500Y103300D02*
Y198300D01*
X363500Y204300D02*
X369500Y198300D01*
X322600Y240500D02*
X339300Y223800D01*
Y68300D02*
Y223800D01*
X272300Y46400D02*
X272400Y46500D01*
X297200Y34100D02*
Y40800D01*
X277700Y88000D02*
X281800Y92100D01*
Y189700D01*
Y200300D01*
X225900Y100300D02*
X244300Y118700D01*
Y201800D01*
X244100Y202000D02*
X244300Y201800D01*
X167700Y217800D02*
X209100D01*
X213800Y213100D01*
X263100D01*
X344500Y84000D02*
Y221200D01*
D15*
X442528Y433157D02*
X442100Y432728D01*
X442528Y432300D01*
X442957Y432728D01*
X442528Y433157D01*
X451355Y439156D02*
X450927Y440013D01*
X450070Y440870D01*
X449213Y441298D01*
X447499D01*
X446642Y440870D01*
X445785Y440013D01*
X445357Y439156D01*
X444928Y437870D01*
Y435728D01*
X445357Y434442D01*
X445785Y433585D01*
X446642Y432728D01*
X447499Y432300D01*
X449213D01*
X450070Y432728D01*
X450927Y433585D01*
X451355Y434442D01*
Y435728D01*
X449213D02*
X451355D01*
X456411Y441298D02*
Y432300D01*
X453412Y441298D02*
X459411D01*
X460482D02*
Y432300D01*
X465624D01*
D16*
X362553Y55300D02*
D03*
X145253Y262200D02*
D03*
D17*
X356647Y55300D02*
D03*
X139347Y262200D02*
D03*
D18*
X312400Y76500D02*
D03*
X132000Y110900D02*
D03*
D19*
X302400Y76500D02*
D03*
X292400D02*
D03*
X282400D02*
D03*
X272400D02*
D03*
X262400D02*
D03*
X252400D02*
D03*
X242400D02*
D03*
X232400D02*
D03*
X222400D02*
D03*
X312400Y46500D02*
D03*
X292400D02*
D03*
X282400D02*
D03*
X272400D02*
D03*
X262400D02*
D03*
X252400D02*
D03*
X242400D02*
D03*
X232400D02*
D03*
X222400D02*
D03*
X56600Y175500D02*
D03*
Y185500D02*
D03*
Y195500D02*
D03*
Y205500D02*
D03*
Y215500D02*
D03*
Y225500D02*
D03*
Y235500D02*
D03*
X26600Y175500D02*
D03*
Y185500D02*
D03*
Y195500D02*
D03*
Y205500D02*
D03*
Y215500D02*
D03*
Y225500D02*
D03*
X320700Y265500D02*
D03*
Y255500D02*
D03*
Y245500D02*
D03*
Y235500D02*
D03*
Y225500D02*
D03*
Y215500D02*
D03*
Y205500D02*
D03*
Y195500D02*
D03*
Y185500D02*
D03*
Y175500D02*
D03*
Y165500D02*
D03*
Y155500D02*
D03*
Y145500D02*
D03*
Y135500D02*
D03*
Y125500D02*
D03*
Y115500D02*
D03*
Y105500D02*
D03*
Y95500D02*
D03*
Y85500D02*
D03*
X380700Y275500D02*
D03*
Y265500D02*
D03*
Y255500D02*
D03*
Y245500D02*
D03*
Y235500D02*
D03*
Y225500D02*
D03*
Y215500D02*
D03*
Y205500D02*
D03*
Y195500D02*
D03*
Y185500D02*
D03*
Y175500D02*
D03*
Y165500D02*
D03*
Y155500D02*
D03*
Y145500D02*
D03*
Y135500D02*
D03*
Y125500D02*
D03*
Y115500D02*
D03*
Y105500D02*
D03*
Y95500D02*
D03*
Y85500D02*
D03*
X142000Y110900D02*
D03*
X152000D02*
D03*
X162000D02*
D03*
X172000D02*
D03*
X182000D02*
D03*
X192000D02*
D03*
X202000D02*
D03*
X212000D02*
D03*
X222000D02*
D03*
X132000Y140900D02*
D03*
X152000D02*
D03*
X162000D02*
D03*
X172000D02*
D03*
X182000D02*
D03*
X192000D02*
D03*
X202000D02*
D03*
X212000D02*
D03*
X222000D02*
D03*
X268800Y215500D02*
D03*
Y205500D02*
D03*
Y195500D02*
D03*
Y185500D02*
D03*
Y175500D02*
D03*
Y165500D02*
D03*
Y155500D02*
D03*
Y145500D02*
D03*
Y135500D02*
D03*
X298800Y225500D02*
D03*
Y205500D02*
D03*
Y195500D02*
D03*
Y185500D02*
D03*
Y175500D02*
D03*
Y165500D02*
D03*
Y155500D02*
D03*
Y145500D02*
D03*
Y135500D02*
D03*
D20*
X302400Y46500D02*
D03*
X70200Y225500D02*
D03*
Y215500D02*
D03*
Y205500D02*
D03*
Y195500D02*
D03*
Y185500D02*
D03*
Y175500D02*
D03*
X100200Y235500D02*
D03*
Y225500D02*
D03*
Y215500D02*
D03*
Y205500D02*
D03*
Y195500D02*
D03*
Y185500D02*
D03*
Y175500D02*
D03*
X178100Y274200D02*
D03*
X188100D02*
D03*
X142000Y140900D02*
D03*
X298800Y215500D02*
D03*
X59500Y130900D02*
D03*
Y120900D02*
D03*
Y110900D02*
D03*
Y100900D02*
D03*
Y90900D02*
D03*
Y80900D02*
D03*
Y70900D02*
D03*
Y60900D02*
D03*
X89500Y140900D02*
D03*
Y130900D02*
D03*
Y120900D02*
D03*
Y110900D02*
D03*
Y100900D02*
D03*
Y90900D02*
D03*
Y80900D02*
D03*
Y70900D02*
D03*
Y60900D02*
D03*
X12800Y130900D02*
D03*
Y120900D02*
D03*
Y110900D02*
D03*
Y100900D02*
D03*
Y90900D02*
D03*
Y80900D02*
D03*
Y70900D02*
D03*
Y60900D02*
D03*
X42800Y140900D02*
D03*
Y130900D02*
D03*
Y120900D02*
D03*
Y110900D02*
D03*
Y100900D02*
D03*
Y90900D02*
D03*
Y80900D02*
D03*
Y70900D02*
D03*
Y60900D02*
D03*
D21*
X107200Y211200D02*
D03*
X137200D02*
D03*
X107200Y220000D02*
D03*
X137200D02*
D03*
X56400Y252700D02*
D03*
X26400D02*
D03*
X145800Y278300D02*
D03*
X115800D02*
D03*
X105700Y262400D02*
D03*
X75700D02*
D03*
D22*
X70200Y235500D02*
D03*
X168100Y274200D02*
D03*
X59500Y140900D02*
D03*
X12800D02*
D03*
D23*
X26600Y235500D02*
D03*
X320700Y275500D02*
D03*
X268800Y225500D02*
D03*
D24*
X157700Y237800D02*
D03*
Y227800D02*
D03*
Y217800D02*
D03*
Y207800D02*
D03*
Y197800D02*
D03*
Y187800D02*
D03*
X167700Y247800D02*
D03*
Y237800D02*
D03*
Y227800D02*
D03*
Y217800D02*
D03*
Y207800D02*
D03*
Y197800D02*
D03*
Y187800D02*
D03*
Y177800D02*
D03*
X177700Y247800D02*
D03*
Y237800D02*
D03*
Y187800D02*
D03*
Y177800D02*
D03*
X187700Y247800D02*
D03*
Y237800D02*
D03*
Y187800D02*
D03*
X197700Y247800D02*
D03*
Y237800D02*
D03*
Y187800D02*
D03*
Y177800D02*
D03*
X207700Y247800D02*
D03*
Y187800D02*
D03*
Y177800D02*
D03*
X217700Y247800D02*
D03*
Y237800D02*
D03*
Y227800D02*
D03*
Y217800D02*
D03*
Y207800D02*
D03*
Y197800D02*
D03*
Y187800D02*
D03*
Y177800D02*
D03*
X227700Y237800D02*
D03*
Y227800D02*
D03*
Y217800D02*
D03*
Y207800D02*
D03*
Y197800D02*
D03*
Y187800D02*
D03*
X187700Y177800D02*
D03*
X207700Y237800D02*
D03*
X329400Y62400D02*
D03*
X356300Y200600D02*
D03*
X349900Y100800D02*
D03*
X257600Y63700D02*
D03*
X361400Y205700D02*
D03*
X244100Y202000D02*
D03*
X380700Y62800D02*
D03*
X307500Y36600D02*
D03*
X287000Y195100D02*
D03*
X234500Y202800D02*
D03*
X273400Y56200D02*
D03*
X328400Y240300D02*
D03*
X329200Y111800D02*
D03*
X106500Y270500D02*
D03*
X185700Y231600D02*
D03*
X156900Y133100D02*
D03*
X339500Y68500D02*
D03*
X344700Y84100D02*
D03*
X272300Y46400D02*
D03*
X297300Y40800D02*
D03*
D25*
X116400Y262400D02*
D03*
X121400D02*
D03*
X126400D02*
D03*
D26*
X270200Y124800D02*
D03*
X312100Y117800D02*
D03*
M02*
