%FSLAX25Y25*%
%MOIN*%
G70*
G01*
G75*
G04 Layer_Color=49087*
%ADD10R,0.04331X0.05512*%
%ADD11R,0.04331X0.06693*%
%ADD12O,0.05000X0.30000*%
%ADD13C,0.02000*%
%ADD14C,0.00800*%
%ADD15C,0.00900*%
%ADD16C,0.04921*%
%ADD17R,0.04921X0.04921*%
%ADD18R,0.05906X0.05906*%
%ADD19C,0.05906*%
%ADD20C,0.05906*%
%ADD21C,0.05512*%
%ADD22R,0.05906X0.05906*%
%ADD23R,0.05906X0.05906*%
%ADD24C,0.05000*%
%ADD25O,0.03937X0.07874*%
%ADD26C,0.03000*%
%ADD27R,0.05512X0.04331*%
%ADD28C,0.01000*%
%ADD29C,0.00787*%
%ADD30C,0.00984*%
%ADD31C,0.02362*%
%ADD32C,0.00591*%
%ADD33R,0.31000X0.13000*%
D14*
X147700Y252800D02*
X152700Y257800D01*
X237700D01*
Y167800D02*
Y257800D01*
X147700Y167800D02*
X237700D01*
X147700D02*
Y252800D01*
X21699Y41727D02*
X20985Y42441D01*
X19914Y42798D01*
X18485D01*
X17414Y42441D01*
X16700Y41727D01*
Y41013D01*
X17057Y40299D01*
X17414Y39942D01*
X18128Y39585D01*
X20271Y38871D01*
X20985Y38514D01*
X21342Y38157D01*
X21699Y37442D01*
Y36371D01*
X20985Y35657D01*
X19914Y35300D01*
X18485D01*
X17414Y35657D01*
X16700Y36371D01*
X23377Y34229D02*
X28376Y42798D01*
X28876D02*
Y35300D01*
Y42798D02*
X33875Y35300D01*
Y42798D02*
Y35300D01*
D15*
X442528Y433157D02*
X442100Y432728D01*
X442528Y432300D01*
X442957Y432728D01*
X442528Y433157D01*
X451355Y439156D02*
X450927Y440013D01*
X450070Y440870D01*
X449213Y441298D01*
X447499D01*
X446642Y440870D01*
X445785Y440013D01*
X445357Y439156D01*
X444928Y437870D01*
Y435728D01*
X445357Y434442D01*
X445785Y433585D01*
X446642Y432728D01*
X447499Y432300D01*
X449213D01*
X450070Y432728D01*
X450927Y433585D01*
X451355Y434442D01*
Y435728D01*
X449213D02*
X451355D01*
X456411Y441298D02*
Y432300D01*
X453412Y441298D02*
X459411D01*
X463053D02*
X462196Y440870D01*
X461339Y440013D01*
X460910Y439156D01*
X460482Y437870D01*
Y435728D01*
X460910Y434442D01*
X461339Y433585D01*
X462196Y432728D01*
X463053Y432300D01*
X464767D01*
X465624Y432728D01*
X466480Y433585D01*
X466909Y434442D01*
X467337Y435728D01*
Y437870D01*
X466909Y439156D01*
X466480Y440013D01*
X465624Y440870D01*
X464767Y441298D01*
X463053D01*
D28*
X480259Y-107403D02*
G03*
X480271Y-107417I4841J3953D01*
G01*
X105359Y392897D02*
G03*
X105371Y392883I4841J3953D01*
G01*
X136999Y250598D02*
X135999Y251598D01*
X134000D01*
X133000Y250598D01*
Y246600D01*
X134000Y245600D01*
X135999D01*
X136999Y246600D01*
X138998Y245600D02*
X140997D01*
X139998D01*
Y251598D01*
X138998Y250598D01*
X143996Y245600D02*
X145996D01*
X144996D01*
Y251598D01*
X143996Y250598D01*
X358099Y72698D02*
X357099Y73698D01*
X355100D01*
X354100Y72698D01*
Y68700D01*
X355100Y67700D01*
X357099D01*
X358099Y68700D01*
X360098Y67700D02*
X362097D01*
X361098D01*
Y73698D01*
X360098Y72698D01*
X369095Y67700D02*
X365096D01*
X369095Y71699D01*
Y72698D01*
X368095Y73698D01*
X366096D01*
X365096Y72698D01*
X13299Y283398D02*
X9300D01*
Y280399D01*
X11299Y281399D01*
X12299D01*
X13299Y280399D01*
Y278400D01*
X12299Y277400D01*
X10300D01*
X9300Y278400D01*
X19297Y277400D02*
X15298D01*
X19297Y281399D01*
Y282398D01*
X18297Y283398D01*
X16298D01*
X15298Y282398D01*
X25295Y283398D02*
X23295Y282398D01*
X21296Y280399D01*
Y278400D01*
X22296Y277400D01*
X24295D01*
X25295Y278400D01*
Y279399D01*
X24295Y280399D01*
X21296D01*
X27294Y282398D02*
X28294Y283398D01*
X30293D01*
X31293Y282398D01*
Y278400D01*
X30293Y277400D01*
X28294D01*
X27294Y278400D01*
Y282398D01*
X37291Y277400D02*
X33292D01*
X37291Y281399D01*
Y282398D01*
X36291Y283398D01*
X34292D01*
X33292Y282398D01*
X326899Y45498D02*
X325899Y46498D01*
X323900D01*
X322900Y45498D01*
Y41500D01*
X323900Y40500D01*
X325899D01*
X326899Y41500D01*
X332897Y46498D02*
X330897Y45498D01*
X328898Y43499D01*
Y41500D01*
X329898Y40500D01*
X331897D01*
X332897Y41500D01*
Y42499D01*
X331897Y43499D01*
X328898D01*
X280900Y90198D02*
Y85200D01*
X281900Y84200D01*
X283899D01*
X284899Y85200D01*
Y90198D01*
X286898Y84200D02*
X288897D01*
X287898D01*
Y90198D01*
X286898Y89198D01*
X291896D02*
X292896Y90198D01*
X294896D01*
X295895Y89198D01*
Y88199D01*
X294896Y87199D01*
X293896D01*
X294896D01*
X295895Y86199D01*
Y85200D01*
X294896Y84200D01*
X292896D01*
X291896Y85200D01*
X279600Y240098D02*
Y235100D01*
X280600Y234100D01*
X282599D01*
X283599Y235100D01*
Y240098D01*
X285598Y234100D02*
X287597D01*
X286598D01*
Y240098D01*
X285598Y239098D01*
X294595Y234100D02*
X290596D01*
X294595Y238099D01*
Y239098D01*
X293596Y240098D01*
X291596D01*
X290596Y239098D01*
X171100Y103598D02*
Y98600D01*
X172100Y97600D01*
X174099D01*
X175099Y98600D01*
Y103598D01*
X177098Y97600D02*
X179097D01*
X178098D01*
Y103598D01*
X177098Y102598D01*
X182096D02*
X183096Y103598D01*
X185096D01*
X186095Y102598D01*
Y98600D01*
X185096Y97600D01*
X183096D01*
X182096Y98600D01*
Y102598D01*
X300600Y282598D02*
Y277600D01*
X301600Y276600D01*
X303599D01*
X304599Y277600D01*
Y282598D01*
X306598D02*
X310597D01*
Y281598D01*
X306598Y277600D01*
Y276600D01*
X35600Y162598D02*
Y157600D01*
X36600Y156600D01*
X38599D01*
X39599Y157600D01*
Y162598D01*
X45597D02*
X43597Y161598D01*
X41598Y159599D01*
Y157600D01*
X42598Y156600D01*
X44597D01*
X45597Y157600D01*
Y158599D01*
X44597Y159599D01*
X41598D01*
X67850Y253648D02*
Y248650D01*
X68850Y247650D01*
X70849D01*
X71849Y248650D01*
Y253648D01*
X76847Y247650D02*
Y253648D01*
X73848Y250649D01*
X77847D01*
X35600Y258900D02*
Y264898D01*
X38599D01*
X39599Y263898D01*
Y261899D01*
X38599Y260899D01*
X35600D01*
X37599D02*
X39599Y258900D01*
X41598Y263898D02*
X42598Y264898D01*
X44597D01*
X45597Y263898D01*
Y262899D01*
X44597Y261899D01*
X43597D01*
X44597D01*
X45597Y260899D01*
Y259900D01*
X44597Y258900D01*
X42598D01*
X41598Y259900D01*
X119900Y226000D02*
Y231998D01*
X122899D01*
X123899Y230998D01*
Y228999D01*
X122899Y227999D01*
X119900D01*
X121899D02*
X123899Y226000D01*
X129897D02*
X125898D01*
X129897Y229999D01*
Y230998D01*
X128897Y231998D01*
X126898D01*
X125898Y230998D01*
X120300Y200700D02*
Y206698D01*
X123299D01*
X124299Y205698D01*
Y203699D01*
X123299Y202699D01*
X120300D01*
X122299D02*
X124299Y200700D01*
X126298D02*
X128297D01*
X127298D01*
Y206698D01*
X126298Y205698D01*
X196450Y278550D02*
X202448D01*
Y275551D01*
X201448Y274551D01*
X199449D01*
X198449Y275551D01*
Y278550D01*
X196450Y272552D02*
Y270553D01*
Y271552D01*
X202448D01*
X201448Y272552D01*
X8049Y227448D02*
X7049Y228448D01*
X5050D01*
X4050Y227448D01*
Y223450D01*
X5050Y222450D01*
X7049D01*
X8049Y223450D01*
X10048Y222450D02*
X12047D01*
X11048D01*
Y228448D01*
X10048Y227448D01*
X15046D02*
X16046Y228448D01*
X18045D01*
X19045Y227448D01*
Y223450D01*
X18045Y222450D01*
X16046D01*
X15046Y223450D01*
Y227448D01*
X7349Y247448D02*
X6349Y248448D01*
X4350D01*
X3350Y247448D01*
Y243450D01*
X4350Y242450D01*
X6349D01*
X7349Y243450D01*
X9348D02*
X10348Y242450D01*
X12347D01*
X13347Y243450D01*
Y247448D01*
X12347Y248448D01*
X10348D01*
X9348Y247448D01*
Y246449D01*
X10348Y245449D01*
X13347D01*
X188200Y164998D02*
Y160000D01*
X189200Y159000D01*
X191199D01*
X192199Y160000D01*
Y164998D01*
X194198Y163998D02*
X195198Y164998D01*
X197197D01*
X198197Y163998D01*
Y162999D01*
X197197Y161999D01*
X198197Y160999D01*
Y160000D01*
X197197Y159000D01*
X195198D01*
X194198Y160000D01*
Y160999D01*
X195198Y161999D01*
X194198Y162999D01*
Y163998D01*
X195198Y161999D02*
X197197D01*
X100300Y278500D02*
Y284498D01*
X103299D01*
X104299Y283498D01*
Y281499D01*
X103299Y280499D01*
X100300D01*
X102299D02*
X104299Y278500D01*
X110297Y284498D02*
X106298D01*
Y281499D01*
X108297Y282499D01*
X109297D01*
X110297Y281499D01*
Y279500D01*
X109297Y278500D01*
X107298D01*
X106298Y279500D01*
X86800Y266900D02*
Y272898D01*
X89799D01*
X90799Y271898D01*
Y269899D01*
X89799Y268899D01*
X86800D01*
X88799D02*
X90799Y266900D01*
X95797D02*
Y272898D01*
X92798Y269899D01*
X96797D01*
X211700Y267898D02*
Y262900D01*
X212700Y261900D01*
X214699D01*
X215699Y262900D01*
Y267898D01*
X221697Y261900D02*
X217698D01*
X221697Y265899D01*
Y266898D01*
X220697Y267898D01*
X218698D01*
X217698Y266898D01*
X14449Y155948D02*
X13449Y156948D01*
X11450D01*
X10450Y155948D01*
Y154949D01*
X11450Y153949D01*
X13449D01*
X14449Y152949D01*
Y151950D01*
X13449Y150950D01*
X11450D01*
X10450Y151950D01*
X16448Y150950D02*
X18447D01*
X17448D01*
Y156948D01*
X16448Y155948D01*
X61149D02*
X60149Y156948D01*
X58150D01*
X57150Y155948D01*
Y154949D01*
X58150Y153949D01*
X60149D01*
X61149Y152949D01*
Y151950D01*
X60149Y150950D01*
X58150D01*
X57150Y151950D01*
X67147Y150950D02*
X63148D01*
X67147Y154949D01*
Y155948D01*
X66147Y156948D01*
X64148D01*
X63148Y155948D01*
X126600Y35800D02*
X128200D01*
X127400D01*
Y40598D01*
X126600Y39799D01*
X377699Y38200D02*
X374500D01*
X377699Y41399D01*
Y42199D01*
X376899Y42998D01*
X375300D01*
X374500Y42199D01*
X382497Y42998D02*
X379298D01*
Y40599D01*
X380898Y41399D01*
X381698D01*
X382497Y40599D01*
Y39000D01*
X381698Y38200D01*
X380098D01*
X379298Y39000D01*
X128799Y90598D02*
X126799Y89598D01*
X124800Y87599D01*
Y85600D01*
X125800Y84600D01*
X127799D01*
X128799Y85600D01*
Y86599D01*
X127799Y87599D01*
X124800D01*
X130798Y89598D02*
X131798Y90598D01*
X133797D01*
X134797Y89598D01*
Y88599D01*
X133797Y87599D01*
X134797Y86599D01*
Y85600D01*
X133797Y84600D01*
X131798D01*
X130798Y85600D01*
Y86599D01*
X131798Y87599D01*
X130798Y88599D01*
Y89598D01*
X131798Y87599D02*
X133797D01*
X136796Y89598D02*
X137796Y90598D01*
X139795D01*
X140795Y89598D01*
Y85600D01*
X139795Y84600D01*
X137796D01*
X136796Y85600D01*
Y89598D01*
X142794Y85600D02*
X143794Y84600D01*
X145793D01*
X146793Y85600D01*
Y89598D01*
X145793Y90598D01*
X143794D01*
X142794Y89598D01*
Y88599D01*
X143794Y87599D01*
X146793D01*
X158789Y88599D02*
X155790D01*
X154790Y87599D01*
Y85600D01*
X155790Y84600D01*
X158789D01*
X161788Y88599D02*
X163787D01*
X164787Y87599D01*
Y84600D01*
X161788D01*
X160788Y85600D01*
X161788Y86599D01*
X164787D01*
X166786Y88599D02*
Y84600D01*
Y86599D01*
X167786Y87599D01*
X168786Y88599D01*
X169785D01*
X176783Y90598D02*
Y84600D01*
X173784D01*
X172784Y85600D01*
Y87599D01*
X173784Y88599D01*
X176783D01*
X111699Y74200D02*
X109700Y76199D01*
Y78199D01*
X111699Y80198D01*
X118697Y78199D02*
X115698D01*
X114698Y77199D01*
Y75200D01*
X115698Y74200D01*
X118697D01*
X120696D02*
X122696Y76199D01*
Y78199D01*
X120696Y80198D01*
X137691Y74200D02*
Y78199D01*
X139690Y80198D01*
X141690Y78199D01*
Y74200D01*
Y77199D01*
X137691D01*
X143689Y74200D02*
X145688D01*
X144689D01*
Y80198D01*
X143689D01*
X151686Y74200D02*
X149687D01*
X148687Y75200D01*
Y77199D01*
X149687Y78199D01*
X151686D01*
X152686Y77199D01*
Y76199D01*
X148687D01*
X154685Y78199D02*
X158684Y74200D01*
X156685Y76199D01*
X158684Y78199D01*
X154685Y74200D01*
X170680Y80198D02*
X166682D01*
Y77199D01*
X168681D01*
X166682D01*
Y74200D01*
X172680Y78199D02*
Y74200D01*
Y76199D01*
X173679Y77199D01*
X174679Y78199D01*
X175679D01*
X181677Y74200D02*
X179677D01*
X178678Y75200D01*
Y77199D01*
X179677Y78199D01*
X181677D01*
X182676Y77199D01*
Y76199D01*
X178678D01*
X187675Y74200D02*
X185675D01*
X184676Y75200D01*
Y77199D01*
X185675Y78199D01*
X187675D01*
X188674Y77199D01*
Y76199D01*
X184676D01*
X194673Y80198D02*
Y74200D01*
X191674D01*
X190674Y75200D01*
Y77199D01*
X191674Y78199D01*
X194673D01*
X145699Y62100D02*
X141700D01*
X145699Y66099D01*
Y67098D01*
X144699Y68098D01*
X142700D01*
X141700Y67098D01*
X147698D02*
X148698Y68098D01*
X150697D01*
X151697Y67098D01*
Y63100D01*
X150697Y62100D01*
X148698D01*
X147698Y63100D01*
Y67098D01*
X153696Y62100D02*
X155695D01*
X154696D01*
Y68098D01*
X153696Y67098D01*
X162693Y62100D02*
X158695D01*
X162693Y66099D01*
Y67098D01*
X161694Y68098D01*
X159694D01*
X158695Y67098D01*
D29*
X367474Y55300D02*
G03*
X367474Y55300I-7874J0D01*
G01*
X150174Y262200D02*
G03*
X150174Y262200I-7874J0D01*
G01*
X316613Y64000D02*
G03*
X316613Y59000I0J-2500D01*
G01*
X82700Y244280D02*
G03*
X87700Y244280I2500J0D01*
G01*
X39100Y244280D02*
G03*
X44100Y244280I2500J0D01*
G01*
X348200Y284831D02*
G03*
X353200Y284831I2500J0D01*
G01*
X127787Y123400D02*
G03*
X127787Y128400I0J2500D01*
G01*
X281300Y229713D02*
G03*
X286300Y229713I2500J0D01*
G01*
X129466Y256098D02*
G03*
X113334Y256098I-8066J6302D01*
G01*
X72000Y147554D02*
G03*
X77000Y147554I2500J0D01*
G01*
X25300D02*
G03*
X30300Y147554I2500J0D01*
G01*
X316613Y64000D02*
Y71933D01*
Y51067D02*
Y59000D01*
X218187Y51067D02*
Y71933D01*
X316613D01*
X218187Y51067D02*
X316613D01*
X112200Y208200D02*
Y211200D01*
Y208200D02*
X132200D01*
Y214200D01*
X112200D02*
X132200D01*
X112200Y211200D02*
Y214200D01*
X132200Y211200D02*
X133100D01*
X111300D02*
X112200D01*
X9525Y212547D02*
X12675D01*
X9525Y218453D02*
X12675D01*
X74767Y166720D02*
Y244280D01*
X95633Y166720D02*
Y244280D01*
X74767D02*
X82700D01*
X87700D02*
X95633D01*
X74767Y166720D02*
X95633D01*
X52033Y166721D02*
Y244280D01*
X31167Y166721D02*
Y244280D01*
Y166721D02*
X52033D01*
X44100Y244280D02*
X52033D01*
X31167D02*
X39100D01*
X112200Y217000D02*
Y220000D01*
Y217000D02*
X132200D01*
Y223000D01*
X112200D02*
X132200D01*
X112200Y220000D02*
Y223000D01*
X132200Y220000D02*
X133100D01*
X111300D02*
X112200D01*
X163100Y269200D02*
X193100D01*
Y279200D01*
X163100D02*
X193100D01*
X163100Y269200D02*
Y279200D01*
X8825Y232547D02*
X11975D01*
X8825Y238453D02*
X11975D01*
X51400Y252700D02*
Y255700D01*
X31400D02*
X51400D01*
X31400Y249700D02*
Y255700D01*
Y249700D02*
X51400D01*
Y252700D01*
X30500D02*
X31400D01*
X51400D02*
X52300D01*
X325306Y284831D02*
X348200D01*
X353200D02*
X376094D01*
X325306Y76169D02*
X376094D01*
X325306D02*
Y284831D01*
X376094Y76169D02*
Y284831D01*
X127787Y115467D02*
Y123400D01*
Y128400D02*
Y136333D01*
X226213Y115467D02*
Y136333D01*
X127787Y115467D02*
X226213D01*
X127787Y136333D02*
X226213D01*
X273367Y229713D02*
X281300D01*
X286300D02*
X294233D01*
X273367Y131287D02*
X294233D01*
X273367D02*
Y229713D01*
X294233Y131287D02*
Y229713D01*
X140800Y278300D02*
Y281300D01*
X120800D02*
X140800D01*
X120800Y275300D02*
Y281300D01*
Y275300D02*
X140800D01*
Y278300D01*
X119900D02*
X120800D01*
X140800D02*
X141700D01*
X100700Y262400D02*
Y265400D01*
X80700D02*
X100700D01*
X80700Y259400D02*
Y265400D01*
Y259400D02*
X100700D01*
Y262400D01*
X79800D02*
X80700D01*
X100700D02*
X101600D01*
X113565Y256101D02*
X129235D01*
X64067Y54246D02*
Y147554D01*
X84933Y54246D02*
Y147554D01*
X64067D02*
X72000D01*
X77000D02*
X84933D01*
X64067Y54246D02*
X84933D01*
X17367D02*
Y147554D01*
X38233Y54246D02*
Y147554D01*
X17367D02*
X25300D01*
X30300D02*
X38233D01*
X17367Y54246D02*
X38233D01*
D30*
X70692Y240618D02*
G03*
X70692Y240618I-492J0D01*
G01*
X59992Y146018D02*
G03*
X59992Y146018I-492J0D01*
G01*
X13292D02*
G03*
X13292Y146018I-492J0D01*
G01*
D31*
X79885Y240342D02*
G03*
X79885Y240342I-1181J0D01*
G01*
X69185Y143616D02*
G03*
X69185Y143616I-1181J0D01*
G01*
X22485D02*
G03*
X22485Y143616I-1181J0D01*
G01*
D32*
X345919Y55299D02*
X349855D01*
X347887Y57267D02*
Y53331D01*
X132300Y269152D02*
X136236D01*
X134268Y271120D02*
Y267184D01*
X123802Y248346D02*
Y252282D01*
X127737Y248346D01*
X128721D01*
X129705Y249330D01*
Y251298D01*
X128721Y252282D01*
X113723Y250865D02*
Y248897D01*
Y249881D01*
X119626D01*
X118642Y250865D01*
D33*
X57400Y39200D02*
D03*
M02*
